<svg width="16" height="16" viewBox="0 0 16 16" fill="none" xmlns="http://www.w3.org/2000/svg">
<g clip-path="url(#clip0_19414_68722)">
<path d="M8 16C12.4334 16 16 12.4334 16 8C16 3.56664 12.4334 0 8 0C3.56664 0 0 3.56664 0 8C0 12.4334 3.56664 16 8 16Z" fill="#00A6C4"/>
<g clip-path="url(#clip1_19414_68722)">
<path d="M5.80213 8.73986C6.10867 8.73986 6.40774 8.63768 6.64948 8.45076L4.70556 6.50684C4.23702 7.11244 4.34917 7.98472 4.95478 8.45325C5.19901 8.63768 5.49559 8.73986 5.80213 8.73986Z" fill="white"/>
<path d="M11.5846 7.35175C11.5846 7.0452 11.4824 6.74614 11.2955 6.50439L9.35156 8.44832C9.95717 8.91686 10.827 8.80471 11.2955 8.1991C11.4824 7.95735 11.5846 7.65829 11.5846 7.35175Z" fill="white"/>
<path d="M12.5636 5.23584L11.7038 6.09565C12.3966 6.92556 12.2869 8.1617 11.457 8.85453C10.7293 9.46263 9.6726 9.46263 8.94487 8.85453L8.00033 9.79908L7.05827 8.85702C6.22836 9.54986 4.99223 9.4402 4.29939 8.61029C3.69129 7.88257 3.69129 6.82587 4.29939 6.09815L3.85827 5.65702L3.43958 5.23584C2.93366 6.06824 2.66699 7.02525 2.66699 7.9997C2.66699 10.9455 5.05453 13.333 8.00033 13.333C10.9461 13.333 13.3337 10.9455 13.3337 7.9997C13.3362 7.02525 13.067 6.06824 12.5636 5.23584Z" fill="white"/>
<path d="M11.8583 4.31897C9.82712 2.18813 6.45267 2.10838 4.32183 4.13953C4.25952 4.19935 4.19971 4.25916 4.14239 4.31897C4.0103 4.45854 3.88569 4.60308 3.76855 4.75511L8.00033 8.98938L12.2321 4.75511C12.1175 4.60308 11.9904 4.45854 11.8583 4.31897ZM8.00033 3.36446C9.24644 3.36446 10.4078 3.84545 11.2801 4.72271L8.00033 8.00246L4.72058 4.72271C5.59285 3.84545 6.75422 3.36446 8.00033 3.36446Z" fill="white"/>
</g>
</g>
<defs>
<clipPath id="clip0_19414_68722">
<rect width="16" height="16" fill="white"/>
</clipPath>
<clipPath id="clip1_19414_68722">
<rect width="10.6667" height="10.6667" fill="white" transform="translate(2.66699 2.6665)"/>
</clipPath>
</defs>
</svg>
