<svg width="24" height="24" viewBox="0 0 16 16" fill="none" xmlns="http://www.w3.org/2000/svg">
<g clip-path="url(#clip0_19414_75303)">
<path d="M8 16C12.4334 16 16 12.4334 16 8C16 3.56664 12.4334 0 8 0C3.56664 0 0 3.56664 0 8C0 12.4334 3.56664 16 8 16Z" fill="#9013FE"/>
<path d="M10.7162 6.25236C10.5194 6.13116 10.2635 6.13116 10.0471 6.25236L8.512 7.18153L7.46895 7.78752L5.9339 8.71672C5.73711 8.83791 5.48126 8.83791 5.26478 8.71672L4.04461 7.98954C3.8478 7.86835 3.71004 7.64614 3.71004 7.40373V5.96956C3.71004 5.72716 3.82812 5.50497 4.04461 5.38377L5.2451 4.67678C5.4419 4.55558 5.69773 4.55558 5.91423 4.67678L7.11472 5.38377C7.31151 5.50497 7.44927 5.72716 7.44927 5.96956V6.89875L8.49232 6.27255V5.34337C8.49232 5.10097 8.37426 4.87878 8.15777 4.75758L5.9339 3.42439C5.73711 3.3032 5.48126 3.3032 5.26478 3.42439L3.00156 4.75758C2.78507 4.87878 2.66699 5.10097 2.66699 5.34337V8.02994C2.66699 8.27232 2.78507 8.49452 3.00156 8.61571L5.26478 9.94889C5.46158 10.0701 5.71743 10.0701 5.9339 9.94889L7.46895 9.0399L8.512 8.41373L10.0471 7.50474C10.2439 7.38355 10.4997 7.38355 10.7162 7.50474L11.9167 8.21174C12.1135 8.33293 12.2513 8.55513 12.2513 8.79752V10.2317C12.2513 10.4741 12.1332 10.6963 11.9167 10.8175L10.7162 11.5447C10.5194 11.6659 10.2635 11.6659 10.0471 11.5447L8.84658 10.8377C8.64976 10.7165 8.512 10.4943 8.512 10.2519V9.32271L7.46895 9.94889V10.8781C7.46895 11.1205 7.58704 11.3427 7.80353 11.4639L10.0667 12.7971C10.2635 12.9183 10.5194 12.9183 10.7359 12.7971L12.9991 11.4639C13.1959 11.3427 13.3337 11.1205 13.3337 10.8781V8.19152C13.3337 7.94914 13.2156 7.72694 12.9991 7.60575L10.7162 6.25236Z" fill="white"/>
</g>
<defs>
<clipPath id="clip0_19414_75303">
</clipPath>
</defs>
</svg>
