<svg xmlns="http://www.w3.org/2000/svg"  viewBox="0 0 21 22" fill="none">
  <g clip-path="url(#clip0_19428_13109)">
    <path d="M10.1119 4.40265C9.28426 4.40265 8.64052 4.58075 8.1807 4.93695C7.73621 5.27765 7.51397 5.85841 7.51397 6.6792C7.51397 7.05088 7.5906 7.36836 7.74388 7.63164C7.89715 7.89491 8.08874 8.11947 8.31865 8.30531C8.56388 8.49115 8.83977 8.64602 9.14632 8.76991C9.46819 8.87832 9.79006 8.97124 10.1119 9.04867V4.40265ZM7.16911 14.2522C7.15378 15.2743 7.37602 16.0796 7.83584 16.6681C8.29566 17.2566 9.05435 17.5664 10.1119 17.5973V11.9757C9.48352 11.8053 8.8551 11.604 8.22668 11.3717C7.6136 11.1239 7.05415 10.8142 6.54835 10.4425C6.05788 10.0553 5.65938 9.57522 5.35283 9.00221C5.04629 8.4292 4.89301 7.71681 4.89301 6.86504C4.89301 6.12168 5.03096 5.47124 5.30685 4.91372C5.59807 4.34071 5.98125 3.86836 6.45639 3.49668C6.94686 3.10951 7.50631 2.81526 8.13472 2.61394C8.76314 2.41261 9.42221 2.31195 10.1119 2.31195V0.5H11.1005V2.31195C11.7903 2.31195 12.4417 2.40487 13.0548 2.59071C13.6678 2.77655 14.1966 3.05531 14.6411 3.42699C15.1009 3.79867 15.4611 4.27102 15.7217 4.84403C15.9976 5.41703 16.1355 6.08296 16.1355 6.84181H13.5146C13.4839 6.05199 13.277 5.44801 12.8938 5.02987C12.526 4.61173 11.9282 4.40265 11.1005 4.40265V9.3042C11.7903 9.49004 12.4647 9.70686 13.1237 9.95465C13.7828 10.2024 14.3652 10.5199 14.871 10.9071C15.3768 11.2942 15.783 11.7743 16.0895 12.3473C16.3961 12.9204 16.5494 13.625 16.5494 14.4613C16.5494 15.3285 16.4038 16.0874 16.1125 16.7378C15.8366 17.3728 15.4535 17.9071 14.963 18.3407C14.4725 18.7589 13.8978 19.0763 13.2387 19.2931C12.5796 19.5254 11.8669 19.6571 11.1005 19.6881V21.5H10.1119V19.6881C9.28426 19.6726 8.52557 19.5409 7.83584 19.2931C7.14612 19.0454 6.55602 18.6969 6.06555 18.2478C5.57508 17.7832 5.1919 17.2179 4.91601 16.552C4.65544 15.8861 4.53283 15.1195 4.54815 14.2522H7.16911ZM11.1005 17.5973C11.9282 17.5354 12.6026 17.2954 13.1237 16.8772C13.6602 16.4436 13.9284 15.7622 13.9284 14.833C13.9284 14.3993 13.8441 14.0354 13.6755 13.7411C13.5222 13.4469 13.3077 13.1991 13.0318 12.9978C12.7712 12.7965 12.4723 12.6338 12.1351 12.51C11.7979 12.3861 11.4531 12.2777 11.1005 12.1847V17.5973Z" fill="#00C42B"/>
  </g>
  <defs>
    <clipPath id="clip0_19428_13109">
      <rect width="20.7837" height="21" fill="white" transform="translate(0 0.5)"/>
    </clipPath>
  </defs>
</svg>