<svg xmlns="http://www.w3.org/2000/svg" width="17" height="16" viewBox="0 0 17 16" fill="none">
  <g clip-path="url(#clip0_19549_9013)">
    <path d="M8.44587 0C4.0645 0 0.5 3.58878 0.5 7.99998C0.5 12.4112 4.0645 16 8.44587 16C12.8273 16 16.3918 12.4112 16.3918 7.99998C16.3918 3.58878 12.8273 0 8.44587 0ZM15.525 7.99998C15.525 8.6864 15.4278 9.35034 15.2471 9.97898H12.2972C12.3615 9.33084 12.3984 8.66724 12.3984 8.00369C12.3984 7.34013 12.3615 6.67658 12.2972 6.02843H15.2493C15.4286 6.65485 15.525 7.31627 15.525 7.99998ZM14.8853 5.04085H12.1745C11.9605 3.64799 11.5921 2.37189 11.0757 1.383C12.7629 2.06514 14.1308 3.38308 14.8853 5.04085ZM11.4143 8.00369C11.4143 8.68884 11.3774 9.34628 11.3131 9.97898H5.63287C5.56852 9.34628 5.53172 8.68888 5.53172 8.00369C5.53172 7.31849 5.56852 6.66114 5.63287 6.02843H11.3131C11.3774 6.66118 11.4143 7.31854 11.4143 8.00369ZM9.63936 0.974493C10.3359 1.75712 10.8936 3.21923 11.1874 5.04081H5.76159C6.05678 3.21055 6.61842 1.74307 7.31965 0.963235C7.68652 0.903936 8.06262 0.87265 8.44587 0.87265C8.85257 0.872693 9.25121 0.907906 9.63936 0.974493ZM5.88477 1.35555C5.36088 2.34824 4.98807 3.63499 4.77454 5.04085H2.00644C2.77117 3.36061 4.16601 2.02945 5.88477 1.35555ZM4.64885 9.97898H1.64468C1.46396 9.35038 1.36679 8.68644 1.36679 7.99998C1.36679 7.31627 1.46313 6.65481 1.64247 6.02843H4.65193C4.58753 6.67658 4.55077 7.34013 4.55077 8.00369C4.55077 8.66724 4.58753 9.33079 4.64885 9.97898ZM2.00986 10.9666H4.77454C4.98989 12.3687 5.36179 13.6524 5.88359 14.644C4.16791 13.9709 2.7752 12.6429 2.00986 10.9666ZM7.3122 15.0355C6.61447 14.2536 6.05574 12.7903 5.76159 10.9666H11.1874C10.8947 12.7816 10.3399 14.2396 9.64685 15.0242C9.25632 15.0917 8.85513 15.1273 8.44583 15.1273C8.06002 15.1273 7.68145 15.0956 7.3122 15.0355ZM11.0844 14.6134C11.5979 13.6261 11.9644 12.3544 12.1776 10.9666H14.8819C14.1279 12.618 12.7651 13.9313 11.0844 14.6134Z" fill="#009AFF"/>
  </g>
  <defs>
    <clipPath id="clip0_19549_9013">
      <rect width="16" height="16" fill="white" transform="translate(0.5)"/>
    </clipPath>
  </defs>
</svg>