<svg viewBox="0 0 24 24" fill="none" xmlns="http://www.w3.org/2000/svg">
<g clip-path="url(#clip0_14699_199699)">
<path d="M12 24C18.65 24 24 18.65 24 12C24 5.34996 18.65 0 12 0C5.34996 0 0 5.34996 0 12C0 18.65 5.34996 24 12 24Z" fill="#00A6C4"/>
<g clip-path="url(#clip1_14699_199699)">
<path d="M8.70319 13.1103C9.16301 13.1103 9.6116 12.957 9.97422 12.6766L7.05833 9.76074C6.35553 10.6692 6.52375 11.9776 7.43216 12.6804C7.79852 12.957 8.24338 13.1103 8.70319 13.1103Z" fill="white"/>
<path d="M17.3759 11.0281C17.3759 10.5683 17.2226 10.1197 16.9423 9.75708L14.0264 12.673C14.9348 13.3758 16.2395 13.2075 16.9423 12.2991C17.2226 11.9365 17.3759 11.4879 17.3759 11.0281Z" fill="white"/>
<path d="M18.8449 7.85425L17.5551 9.14397C18.5944 10.3888 18.4299 12.243 17.185 13.2823C16.0935 14.1944 14.5084 14.1944 13.4168 13.2823L12 14.6991L10.5869 13.286C9.34206 14.3253 7.48785 14.1608 6.4486 12.9159C5.53645 11.8243 5.53645 10.2393 6.4486 9.14771L5.78692 8.48602L5.15888 7.85425C4.4 9.10285 4 10.5384 4 12C4 16.4187 7.58131 20 12 20C16.4187 20 20 16.4187 20 12C20.0037 10.5384 19.6 9.10285 18.8449 7.85425Z" fill="white"/>
<path d="M17.7869 6.47846C14.7402 3.2822 9.67851 3.16257 6.48225 6.2093C6.38879 6.29902 6.29907 6.38874 6.21309 6.47846C6.01496 6.6878 5.82804 6.90463 5.65234 7.13266L12 13.4841L18.3477 7.13266C18.1757 6.90463 17.9851 6.6878 17.7869 6.47846ZM12 5.04668C13.8692 5.04668 15.6112 5.76818 16.9196 7.08407L12 12.0037L7.08038 7.08407C8.38879 5.76818 10.1308 5.04668 12 5.04668Z" fill="white"/>
</g>
</g>
<defs>
<clipPath id="clip0_14699_199699">
<rect width="24" height="24" fill="white"/>
</clipPath>
<clipPath id="clip1_14699_199699">
<rect width="16" height="16" fill="white" transform="translate(4 4)"/>
</clipPath>
</defs>
</svg>
