<svg width="16" height="16" viewBox="0 0 16 16" fill="none" xmlns="http://www.w3.org/2000/svg">
<g clip-path="url(#clip0_14815_208733)">
<path d="M2.84375 2.34375L1.78125 1.28125C1.30937 0.809375 0.5 1.14375 0.5 1.80938V5.25C0.5 5.66563 0.834375 6 1.25 6H4.69063C5.35938 6 5.69375 5.19063 5.22188 4.71875L4.25938 3.75625C5.34375 2.67188 6.84375 2 8.5 2C11.8125 2 14.5 4.6875 14.5 8C14.5 11.3125 11.8125 14 8.5 14C7.225 14 6.04375 13.6031 5.07188 12.925C4.61875 12.6094 3.99687 12.7188 3.67812 13.1719C3.35938 13.625 3.47187 14.2469 3.925 14.5656C5.225 15.4688 6.80312 16 8.5 16C12.9187 16 16.5 12.4187 16.5 8C16.5 3.58125 12.9187 0 8.5 0C6.29063 0 4.29063 0.896875 2.84375 2.34375ZM8.5 4C8.08437 4 7.75 4.33437 7.75 4.75V8C7.75 8.2 7.82812 8.39062 7.96875 8.53125L10.2188 10.7812C10.5125 11.075 10.9875 11.075 11.2781 10.7812C11.5687 10.4875 11.5719 10.0125 11.2781 9.72188L9.24687 7.69063V4.75C9.24687 4.33437 8.9125 4 8.49687 4H8.5Z" fill="#333333"/>
</g>
<defs>
<clipPath id="clip0_14815_208733">
<rect width="16" height="16" fill="white" transform="translate(0.5)"/>
</clipPath>
</defs>
</svg>
