<svg width="14" height="15" viewBox="0 0 14 15" fill="none" xmlns="http://www.w3.org/2000/svg">
<g clip-path="url(#clip0_19414_70623)">
<path fill-rule="evenodd" clip-rule="evenodd" d="M12.9888 7.6151L7.0112 2.26693L0.983396 7.6151H2.43299V10.2596L2.43056 10.2819V13.0521C2.43056 13.1302 2.48841 13.1667 2.52778 13.1667H2.90782L2.91293 13.1663L2.93021 13.1648L2.99677 13.1592L3.06341 13.1637C3.08287 13.165 3.09372 13.1658 3.10333 13.1663C3.1082 13.1665 3.11116 13.1666 3.11264 13.1666C3.11331 13.1667 3.11367 13.1667 3.11377 13.1667H4.47222C4.51159 13.1667 4.56944 13.1302 4.56944 13.0521V10.875C4.56944 9.96852 5.29423 9.20833 6.22222 9.20833H7.77778C8.70577 9.20833 9.43055 9.96852 9.43055 10.875V13.0521C9.43055 13.1302 9.48841 13.1667 9.52778 13.1667H10.901C10.9194 13.1667 10.9284 13.1666 10.9362 13.1665C10.9389 13.1665 10.9406 13.1664 10.9414 13.1664L11.0118 13.1613L11.07 13.1666L11.0833 13.1667H11.4722C11.5116 13.1667 11.5694 13.1302 11.5694 13.0521V12.6062L11.5746 12.5588C11.5796 12.5129 11.5815 12.4799 11.5816 12.4549C11.5816 12.4544 11.5816 12.4539 11.5816 12.4534L11.5608 7.6151H12.9888ZM7.52014 1.54818L13.7278 7.10221C13.9222 7.27539 14.0194 7.47331 13.9951 7.69596C13.9951 8.11477 13.6727 8.44824 13.2906 8.48645C13.2664 8.48887 13.242 8.4901 13.2174 8.4901H12.4396L12.4566 12.4534C12.4566 12.5202 12.4517 12.587 12.4444 12.6538V13.0521C12.4444 13.5988 12.0094 14.0417 11.4722 14.0417H11.0833C11.0566 14.0417 11.0299 14.0417 11.0031 14.0392C10.9691 14.0417 10.9351 14.0417 10.901 14.0417H9.52778C8.99062 14.0417 8.55555 13.5988 8.55555 13.0521V10.875C8.55555 10.4371 8.20798 10.0833 7.77778 10.0833H6.22222C5.79201 10.0833 5.44444 10.4371 5.44444 10.875V13.0521C5.44444 13.5988 5.00937 14.0417 4.47222 14.0417H3.11354C3.07708 14.0417 3.04062 14.0392 3.00417 14.0367C2.975 14.0392 2.94583 14.0417 2.91667 14.0417H2.52778C1.99062 14.0417 1.55556 13.5988 1.55556 13.0521V10.2812C1.55556 10.259 1.55556 10.2342 1.55799 10.212V8.4901H0.777778C0.340278 8.4901 0 8.14375 0 7.69596C0 7.47331 0.0729167 7.27539 0.243056 7.10221L6.475 1.57292C6.64514 1.39974 6.83958 1.375 7.00972 1.375C7.17986 1.375 7.3743 1.42448 7.52014 1.54818Z"/>
</g>fill
<defs>
<clipPath id="clip0_19414_70623">
<rect width="14" height="14" fill="white" transform="translate(0 0.5)"/>
</clipPath>
</defs>
</svg>
