<svg xmlns="http://www.w3.org/2000/svg" viewBox="0 0 21 22" fill="none">
  <g clip-path="url(#clip0_19428_13085)">
    <path d="M0 4.45117V6.21484C0 6.8652 0.515984 7.39062 1.15465 7.39062H1.73198H3.46395V4.45117C3.46395 3.47748 2.68817 2.6875 1.73198 2.6875C0.775781 2.6875 0 3.47748 0 4.45117ZM4.04128 2.6875C4.4021 3.17986 4.6186 3.78979 4.6186 4.45117V15.6211C4.6186 16.9181 5.65418 17.9727 6.9279 17.9727C8.20163 17.9727 9.2372 16.9181 9.2372 15.6211V15.4264C9.2372 14.2359 10.1862 13.2695 11.3553 13.2695H17.3198V6.21484C17.3198 4.26746 15.7682 2.6875 13.8558 2.6875H4.04128ZM16.7424 19.1484C18.976 19.1484 20.7837 17.3076 20.7837 15.0332C20.7837 14.7099 20.5239 14.4453 20.2064 14.4453H11.3553C10.8248 14.4453 10.3919 14.8826 10.3919 15.4264V15.6211C10.3919 17.5685 8.84029 19.1484 6.9279 19.1484H13.2785H16.7424Z"/>
  </g>
  <defs>
    <clipPath id="clip0_19428_13085">
      <rect width="20.7837" height="21" fill="white" transform="translate(0 0.5)"/>
    </clipPath>
  </defs>
</svg>