<svg xmlns="http://www.w3.org/2000/svg" width="16" height="16" viewBox="0 0 16 16" fill="none">
  <path d="M7.64722 8.00313C7.49199 7.50313 7.4951 6.5375 7.58513 6.5375C7.84592 6.5375 7.82108 7.69063 7.64722 8.00313ZM7.59444 9.47812C7.35539 10.1094 7.05735 10.8313 6.71275 11.4375C7.28088 11.2188 7.92353 10.9 8.66552 10.7531C8.27124 10.4531 7.89248 10.0219 7.59444 9.47812ZM4.67304 13.3781C4.67304 13.4031 5.08284 13.2094 5.75654 12.1219C5.54853 12.3187 4.8531 12.8875 4.67304 13.3781ZM9.69935 5H13.9216V15.25C13.9216 15.6656 13.5894 16 13.1765 16H2.7451C2.33219 16 2 15.6656 2 15.25V0.75C2 0.334375 2.33219 0 2.7451 0H8.95425V4.25C8.95425 4.6625 9.28954 5 9.69935 5ZM9.45098 10.3687C8.83007 9.9875 8.41716 9.4625 8.12533 8.6875C8.26503 8.10938 8.48546 7.23125 8.31781 6.68125C8.1719 5.7625 7.00147 5.85313 6.83382 6.46875C6.6786 7.04063 6.82141 7.84688 7.08529 8.875C6.72516 9.7375 6.19428 10.8937 5.81863 11.5562C5.81552 11.5562 5.81552 11.5594 5.81242 11.5594C4.97108 11.9937 3.52745 12.95 4.12042 13.6844C4.29428 13.9 4.61716 13.9969 4.78791 13.9969C5.34363 13.9969 5.89624 13.4344 6.6848 12.0656C7.48578 11.8 8.36438 11.4688 9.13742 11.3406C9.81111 11.7094 10.5997 11.95 11.1243 11.95C12.0309 11.95 12.093 10.95 11.7359 10.5938C11.3044 10.1687 10.0502 10.2906 9.45098 10.3687ZM13.7042 3.28125L10.6618 0.21875C10.5221 0.078125 10.3327 0 10.134 0H9.94771V4H13.9216V3.80938C13.9216 3.6125 13.844 3.42188 13.7042 3.28125ZM11.4038 11.2594C11.531 11.175 11.3261 10.8875 10.075 10.9781C11.2268 11.4719 11.4038 11.2594 11.4038 11.2594Z" fill="#009AFF"/>
</svg>