<svg width="16" height="16" viewBox="0 0 16 16" fill="none" xmlns="http://www.w3.org/2000/svg">
<g clip-path="url(#clip0_19526_8845)">
<path d="M9.19715 0.5H7.8018C7.67777 0.5 7.61576 0.559259 7.61576 0.677778V7.65547H0.686047C0.562016 7.65547 0.5 7.71473 0.5 7.83325V9.16658C0.5 9.2851 0.562016 9.34436 0.686047 9.34436H7.61576V16.3222C7.61576 16.4407 7.67777 16.5 7.8018 16.5H9.19715C9.32118 16.5 9.3832 16.4407 9.3832 16.3222V9.34436H16.314C16.438 9.34436 16.5 9.2851 16.5 9.16658V7.83325C16.5 7.71473 16.438 7.65547 16.314 7.65547H9.3832V0.677778C9.3832 0.559259 9.32118 0.5 9.19715 0.5Z"/>
</g>
<defs>
<clipPath id="clip0_19526_8845">
<rect width="16" height="16" fill="white" transform="translate(0.5 0.5)"/>
</clipPath>
</defs>
</svg>
