<svg width="130" height="40" viewBox="0 0 130 40" fill="none" xmlns="http://www.w3.org/2000/svg">
<g clip-path="url(#clip0_22716_10142)">
<path fill-rule="evenodd" clip-rule="evenodd" d="M35.1962 30.5049L19.0499 39.8152C18.6226 40.0616 18.0962 40.0616 17.6689 39.8152L1.52256 30.5049C1.09526 30.2585 0.832031 29.8031 0.832031 29.3103V10.6897C0.832031 10.1969 1.09526 9.74153 1.52256 9.49514L17.6689 0.184793C18.0962 -0.0615975 18.6226 -0.0615975 19.0499 0.184793L35.1962 9.49514C35.6235 9.74153 35.8868 10.1969 35.8868 10.6897V29.3103C35.8868 29.8031 35.6235 30.2585 35.1962 30.5049ZM6.8216 26.6078L2.21308 29.267V10.6897L2.23804 10.6753L6.80026 13.4251L6.90781 13.2467L2.44429 10.5563L18.3123 1.40645L18.3123 6.63718L18.5207 6.63718L18.5207 1.4723L34.4112 10.6352L29.7383 13.3319L29.8424 13.5124L34.5057 10.8212V29.1742L29.8622 26.4545L29.757 26.6342L34.4151 29.3626L18.5596 38.5052L18.5596 33.1215H18.3512L18.3513 38.616L2.38397 29.4089L6.92572 26.7882L6.8216 26.6078ZM24.2135 11.8845L13.8635 11.4274L7.81959 18.8649L12.0858 28.8314L22.4921 29.4898L28.4038 21.083L24.2135 11.8845ZM15.0741 28.5395L20.5563 27.1265L21.5211 28.9466L15.0741 28.5395ZM21.6488 26.6504L26.4476 23.125L22.6023 28.4881L21.6488 26.6504ZM12.6892 27.7547L12.5319 21.5521L19.0322 26.1295L12.6892 27.7547ZM11.4924 26.5255L8.50119 19.5763L11.3679 20.1748L11.4924 26.5255ZM21.7145 25.2051L22.8836 16.6813L27.3132 21.114L21.7145 25.2051ZM13.9305 20.0233L21.4147 16.7987L20.329 24.9019L13.9305 20.0233ZM8.68697 18.5365L12.9542 13.2229L11.5399 19.1325L8.68697 18.5365ZM23.2456 15.1402L24.1777 13.2533L26.715 18.6179L23.2456 15.1402ZM13.3107 17.9829L14.5671 12.6432L20.5482 15.1828L13.3107 17.9829ZM21.9495 14.2741L16.9242 12.1064L23.0164 12.3503L21.9495 14.2741ZM52.9536 23.1393L54.3294 24.0899C53.2788 25.7409 52.028 26.8165 50.0018 26.8165C46.1994 26.8165 44.9987 23.3144 44.9987 20.0874C44.9987 14.8843 47.7504 13.3333 49.8517 13.3333C51.8779 13.3333 53.0537 14.384 53.9792 16.11L52.4533 16.8855C51.9029 15.8349 51.1525 14.9093 49.8767 14.9093C47.2751 14.9093 46.7498 18.0612 46.7498 20.0624C46.7498 22.0887 47.2251 25.2406 49.8767 25.2406C51.4026 25.2406 52.1781 24.315 52.9536 23.1393ZM62.2495 13.5585H60.5735V23.1394C60.5735 25.0405 61.8243 26.8166 64.651 26.8166C67.5278 26.8166 68.7535 24.9655 68.7535 23.2394V13.5585H67.0775V22.4389C67.0775 24.3151 66.6272 25.2406 64.5259 25.2406C62.7999 25.2406 62.2495 24.3401 62.2495 22.4389V13.5585ZM77.5491 19.5122H79.7505C81.3765 19.5122 82.4522 18.5866 82.4522 17.1107C82.4522 15.935 81.7517 15.0595 80.2508 15.0595H77.5491V19.5122ZM75.8731 26.5915V13.5585H80.3008C82.4772 13.5585 84.2032 14.5842 84.2032 17.1107C84.2032 18.7117 83.1276 20.2876 81.5516 20.7629L84.7536 26.0411L83.3027 26.9167L79.9756 21.0131H77.5491V26.5915H75.8731ZM92.3485 23.0393H96.9763L98.1771 26.9167L99.8281 26.3163L95.7256 13.5585H93.5742L89.4717 26.3163L91.1227 26.9167L92.3485 23.0393ZM94.6499 15.5097L96.501 21.5384H92.7988L94.6499 15.5097ZM108.849 26.5915V15.0595H105.247V13.5585H114.052V15.0595H110.525V26.5915H108.849ZM121.072 26.5915V13.5585H129.202V15.0595H122.748V18.9618H128.076V20.4627H122.748V25.0906H129.202V26.5915H121.072Z" fill="white"/>
</g>
<defs>
<clipPath id="clip0_22716_10142">
<rect width="130" height="40" fill="white"/>
</clipPath>
</defs>
</svg>
