<svg width="109" height="48" viewBox="0 0 109 48" fill="none" xmlns="http://www.w3.org/2000/svg">
<g clip-path="url(#clip0_19243_3190)">
<path fill-rule="evenodd" clip-rule="evenodd" d="M21.5424 0.397652L41.2617 11.8229C41.5296 11.9782 41.6946 12.2651 41.6946 12.5756V35.4259C41.6946 35.7364 41.5296 36.0233 41.2617 36.1786L21.5424 47.6039C21.2745 47.7591 20.9445 47.7591 20.6766 47.6039L0.957378 36.1786C0.689462 36.0233 0.524414 35.7364 0.524414 35.4259V12.5756C0.524414 12.2651 0.689462 11.9782 0.957378 11.8229L20.6766 0.397652C20.9445 0.242449 21.2745 0.242449 21.5424 0.397652Z" fill="#AE52FF"/>
<path fill-rule="evenodd" clip-rule="evenodd" d="M21.5051 45.4253L39.3766 35.0707C39.6445 34.9154 39.8096 34.6285 39.8096 34.318V13.6089C39.8096 13.2984 39.6445 13.0115 39.3766 12.8562L21.5051 2.50156C21.2373 2.34636 20.9073 2.34636 20.6394 2.50156L2.76793 12.8562C2.50001 13.0115 2.33496 13.2984 2.33496 13.6089V34.318C2.33496 34.6285 2.50001 34.9154 2.76793 35.0707L20.6394 45.4253C20.9073 45.5805 21.2373 45.5805 21.5051 45.4253Z" fill="url(#paint0_linear_19243_3190)"/>
<path d="M32.976 12.4683H9.16895V13.8206H32.976V12.4683Z" fill="#9013FE"/>
<path d="M32.976 16.7502H9.16895V18.1026H32.976V16.7502Z" fill="#9013FE"/>
<path d="M32.976 21.0332H9.16895V22.3856H32.976V21.0332Z" fill="#9013FE"/>
<path d="M32.976 25.3154H9.16895V26.6678H32.976V25.3154Z" fill="#9013FE"/>
<path d="M32.976 29.5984H9.16895V30.9507H32.976V29.5984Z" fill="#9013FE"/>
<path fill-rule="evenodd" clip-rule="evenodd" d="M21.1232 45.7697L2.34391 35.1437C2.24778 35.0894 2.21378 34.967 2.26798 34.8706C2.28583 34.8388 2.312 34.8125 2.34365 34.7945L21.2222 24.0754L39.814 34.7766C39.9097 34.8317 39.9428 34.9543 39.8879 35.0503C39.8703 35.0812 39.8448 35.1068 39.814 35.1245L21.3207 45.769C21.2596 45.8041 21.1846 45.8044 21.1232 45.7697Z" fill="#4D00B4"/>
<path d="M11.1441 33.6755L26.3416 42.9917C26.5181 43.0998 26.7484 43.044 26.8562 42.8669C26.964 42.6899 26.9083 42.4587 26.7319 42.3505L11.5343 33.0344C11.3579 32.9262 11.1275 32.9821 11.0198 33.1591C10.912 33.3362 10.9677 33.5674 11.1441 33.6755Z" fill="#9013FE"/>
<path d="M20.2779 28.4165L35.4755 37.7327C35.6519 37.8409 35.8823 37.785 35.9901 37.608C36.0978 37.4309 36.0422 37.1997 35.8657 37.0916L20.6681 27.7753C20.4917 27.6672 20.2613 27.7231 20.1536 27.9001C20.0458 28.0772 20.1015 28.3084 20.2779 28.4165Z" fill="#9013FE"/>
<path fill-rule="evenodd" clip-rule="evenodd" d="M21.205 32.6764L28.1256 28.6678C28.208 28.62 28.2588 28.5317 28.2588 28.4362V13.1793C28.2588 13.0838 28.208 12.9955 28.1256 12.9477L21.205 8.93914C21.1225 8.89141 21.021 8.89141 20.9386 8.93914L14.018 12.9477C13.9356 12.9955 13.8848 13.0838 13.8848 13.1793V28.4362C13.8848 28.5317 13.9356 28.62 14.018 28.6678L20.9386 32.6764C21.021 32.7241 21.1225 32.7241 21.205 32.6764Z" fill="white"/>
<path d="M19.8941 18.374L17.5827 16.0492C17.4438 15.9096 17.4438 15.6831 17.5827 15.5434L18.0856 15.0376C18.2244 14.8979 18.4496 14.8979 18.5885 15.0376L20.1456 16.6037L23.4807 13.2493C23.6196 13.1096 23.8448 13.1096 23.9836 13.2493L24.4865 13.7551C24.6254 13.8948 24.6254 14.1212 24.4865 14.2609L20.397 18.374C20.2581 18.5137 20.033 18.5137 19.8941 18.374Z" fill="#4D00B4"/>
<path fill-rule="evenodd" clip-rule="evenodd" d="M12.2586 37.2596L17.5356 34.2021C17.618 34.1544 17.6688 34.0661 17.6688 33.9705V27.8557C17.6688 27.7601 17.618 27.6718 17.5356 27.6241L12.2586 24.5666C12.1762 24.5189 12.0747 24.5189 11.9922 24.5666L6.71525 27.6241C6.63281 27.6718 6.58203 27.7601 6.58203 27.8557V33.9705C6.58203 34.0661 6.63281 34.1544 6.71525 34.2021L11.9922 37.2596C12.0747 37.3073 12.1762 37.3073 12.2586 37.2596Z" fill="#EBD4FF"/>
<path d="M12.1258 33.5046C13.5523 33.5046 14.7087 32.3441 14.7087 30.9126C14.7087 29.481 13.5523 28.3206 12.1258 28.3206C10.6993 28.3206 9.54297 29.481 9.54297 30.9126C9.54297 32.3441 10.6993 33.5046 12.1258 33.5046ZM12.1258 32.603C11.1955 32.603 10.4413 31.8462 10.4413 30.9126C10.4413 29.979 11.1955 29.2221 12.1258 29.2221C13.0561 29.2221 13.8103 29.979 13.8103 30.9126C13.8103 31.8462 13.0561 32.603 12.1258 32.603Z" fill="#9013FE"/>
<path d="M26.9863 32.453C27.2344 32.453 27.4355 32.2512 27.4355 32.0023C27.4355 31.7533 27.2344 31.5515 26.9863 31.5515C26.7382 31.5515 26.5371 31.7533 26.5371 32.0023C26.5371 32.2512 26.7382 32.453 26.9863 32.453Z" fill="white"/>
<path d="M28.1093 33.1293C28.3574 33.1293 28.5585 32.9275 28.5585 32.6786C28.5585 32.4296 28.3574 32.2278 28.1093 32.2278C27.8613 32.2278 27.6602 32.4296 27.6602 32.6786C27.6602 32.9275 27.8613 33.1293 28.1093 33.1293Z" fill="white"/>
<path d="M29.2324 33.8049C29.4805 33.8049 29.6816 33.6031 29.6816 33.3541C29.6816 33.1051 29.4805 32.9033 29.2324 32.9033C28.9843 32.9033 28.7832 33.1051 28.7832 33.3541C28.7832 33.6031 28.9843 33.8049 29.2324 33.8049Z" fill="white"/>
<path d="M33.5742 36.5105C33.8223 36.5105 34.0234 36.3086 34.0234 36.0597C34.0234 35.8107 33.8223 35.6089 33.5742 35.6089C33.3261 35.6089 33.125 35.8107 33.125 36.0597C33.125 36.3086 33.3261 36.5105 33.5742 36.5105Z" fill="white"/>
<path d="M16.6552 36.9609C16.9033 36.9609 17.1044 36.7591 17.1044 36.5101C17.1044 36.2611 16.9033 36.0593 16.6552 36.0593C16.4072 36.0593 16.2061 36.2611 16.2061 36.5101C16.2061 36.7591 16.4072 36.9609 16.6552 36.9609Z" fill="white"/>
<path d="M20.4736 39.3647C20.7217 39.3647 20.9228 39.1629 20.9228 38.9139C20.9228 38.665 20.7217 38.4631 20.4736 38.4631C20.2255 38.4631 20.0244 38.665 20.0244 38.9139C20.0244 39.1629 20.2255 39.3647 20.4736 39.3647Z" fill="white"/>
<path d="M21.5957 40.041C21.8438 40.041 22.0449 39.8392 22.0449 39.5902C22.0449 39.3412 21.8438 39.1394 21.5957 39.1394C21.3476 39.1394 21.1465 39.3412 21.1465 39.5902C21.1465 39.8392 21.3476 40.041 21.5957 40.041Z" fill="white"/>
<path d="M60.3432 18.9693V21.0725C59.3196 20.2139 58.2607 19.7847 57.1662 19.7847C55.9752 19.7847 54.9695 20.2083 54.1492 21.0557L54.1185 21.0877C53.2875 21.9513 52.872 23.008 52.872 24.2577C52.872 25.4922 53.2875 26.5336 54.1185 27.382C54.9495 28.2304 55.9679 28.6546 57.1738 28.6546C57.797 28.6546 58.3265 28.553 58.7623 28.3498C59.0055 28.2482 59.2576 28.111 59.5185 27.9383C59.7795 27.7656 60.0544 27.5573 60.3432 27.3134V29.4547C59.3298 30.0288 58.2657 30.3158 57.151 30.3158C55.4739 30.3158 54.0425 29.729 52.8568 28.5555C51.6762 27.3718 51.0859 25.9443 51.0859 24.273C51.0859 22.7743 51.58 21.4382 52.568 20.2647C53.7841 18.827 55.3573 18.1082 57.2878 18.1082C58.3417 18.1082 59.3602 18.3952 60.3432 18.9693ZM64.2055 18.3187V25.2917C64.2055 26.2864 64.369 27.0137 64.696 27.4736C65.1841 28.1384 65.8708 28.4708 66.7563 28.4708C67.6469 28.4708 68.3361 28.1384 68.8242 27.4736C69.1512 27.0287 69.3147 26.3014 69.3147 25.2917V18.3187H71.0731V25.7716C71.0731 26.9912 70.6908 27.9959 69.926 28.7857C69.0657 29.6655 68.0091 30.1053 66.7563 30.1053C65.5035 30.1053 64.4495 29.6655 63.5942 28.7857C62.8294 27.9959 62.4471 26.9912 62.4471 25.7716V18.3187H64.2055ZM77.9759 24.9615L81.5927 29.8948H79.4363L76.0994 25.1564H75.7816V29.8948H74.0186V18.3187H76.0843C77.6279 18.3187 78.7426 18.6061 79.4287 19.1809C80.1853 19.8207 80.5637 20.6654 80.5637 21.7151C80.5637 22.5348 80.3266 23.2395 79.8524 23.8294C79.3782 24.4192 78.7527 24.7965 77.9759 24.9615ZM75.7017 23.7911H76.2784C77.9979 23.7911 78.8576 23.139 78.8576 21.8349C78.8576 20.6133 78.0213 20.0025 76.3485 20.0025H75.7017V23.7911ZM90.2183 27.2676H85.2152L83.9133 30.1053H82.0135L87.7962 17.6873L93.3746 30.1053H91.4445L90.2183 27.2676ZM89.3772 25.6853L87.6308 21.6863L85.8005 25.6853H89.3772ZM97.419 19.9606V29.8948H95.6496V19.9606H92.9539V18.3187H100.107V19.9606H97.419ZM108.102 19.9606H103.364V22.7422H107.964V24.3842H103.364V28.2529H108.102V29.8948H101.58V18.3187H108.102V19.9606Z" fill="white"/>
</g>
<defs>
<linearGradient id="paint0_linear_19243_3190" x1="21.0723" y1="45.5417" x2="21.0723" y2="2.38516" gradientUnits="userSpaceOnUse">
<stop stop-color="#9013FE"/>
<stop offset="1" stop-color="#4D00B4"/>
</linearGradient>
<clipPath id="clip0_19243_3190">
<rect width="108.522" height="48" fill="white"/>
</clipPath>
</defs>
</svg>
