<svg viewBox="0 0 390 149" fill="none" xmlns="http://www.w3.org/2000/svg">
<g clip-path="url(#clip0_22619_253812)">
<path d="M789 0.146484H-393V151.148H789V0.146484Z" fill="#2A1260"/>
<path fill-rule="evenodd" clip-rule="evenodd" d="M192.426 16.4221C192.452 16.5317 192.385 16.6419 192.275 16.6682L32.2966 55.0303C32.187 55.0566 32.0769 54.9891 32.0506 54.8795C32.0243 54.7699 32.0919 54.6597 32.2014 54.6335L192.18 16.2713C192.289 16.245 192.4 16.3126 192.426 16.4221Z" fill="#9013FE" fill-opacity="0.2"/>
<path fill-rule="evenodd" clip-rule="evenodd" d="M192.425 16.4159C192.454 16.5246 192.39 16.6368 192.282 16.6665L46.1789 56.6611C46.0702 56.6909 45.9579 56.6269 45.9282 56.5182C45.8984 56.4095 45.9624 56.2973 46.0711 56.2675L192.174 16.2729C192.283 16.2432 192.395 16.3072 192.425 16.4159Z" fill="#9013FE" fill-opacity="0.2"/>
<path fill-rule="evenodd" clip-rule="evenodd" d="M192.419 16.4005C192.457 16.5066 192.402 16.6235 192.296 16.6617L51.9071 67.2671C51.8011 67.3053 51.6842 67.2504 51.6459 67.1443C51.6077 67.0383 51.6627 66.9214 51.7687 66.8832L192.158 16.2778C192.264 16.2396 192.381 16.2945 192.419 16.4005Z" fill="#9013FE" fill-opacity="0.2"/>
<path fill-rule="evenodd" clip-rule="evenodd" d="M192.416 16.3916C192.459 16.4957 192.41 16.6151 192.305 16.6582L44.5703 77.8745C44.4662 77.9176 44.3468 77.8682 44.3037 77.7641C44.2605 77.66 44.31 77.5406 44.4141 77.4974L192.149 16.2812C192.253 16.2381 192.373 16.2875 192.416 16.3916Z" fill="#9013FE" fill-opacity="0.2"/>
<path d="M111.104 90.0026C109.851 90.0026 108.792 89.4427 108.419 89.1627C107.349 88.1863 104.156 86.5264 99.9503 87.6981C95.7451 88.8698 74.6409 89.1627 64.6145 89.1627C59.942 87.6005 50.2466 84.476 48.8448 84.476H30.3008C29.2494 84.476 26.6503 85.4524 25.4822 85.9406H19.2035V84.476H13.5089L7.23022 87.6981L-10.4377 84.476C-36.7693 83.1622 -92.8492 81.6159 -106.516 85.9406C-120.183 90.2653 -159.033 96.3114 -176.75 98.7938L-186.679 90.0026L-194.418 93.0824L-200.113 94.4262L-210.042 100.138L-220.701 96.778L-225.665 100.138C-229.949 109.153 -243.187 127.665 -261.877 129.591C-285.24 131.999 -303.638 133.287 -300.134 137.206C-297.33 140.342 -295.753 143.352 -300.134 144.99C-304.009 146.438 -376.975 150.144 -393 151L-393 151.261H274.237C421.975 151.261 785.846 151.525 789 151.408V149.943C772.874 148.546 726.368 145.959 723.731 144.99C719.058 142.395 708.779 137.99 705.041 141.126C700.368 145.046 687.373 144.99 679.926 141.126C673.968 138.035 682.408 129.125 687.373 125.056L679.926 120.8C676.47 120.8 666.58 121.651 654.665 125.056C642.75 128.46 611.444 123.637 597.281 120.8C593.922 120.262 585.775 118.737 580.051 116.936C574.327 115.136 567.153 113.685 564.281 113.185L552.016 117.272L533.326 115.032L524.711 110.833H516.826C502.711 110.833 469.02 111.303 447.176 113.185C425.332 115.066 391.544 107.548 377.381 103.553C375.482 104.449 371.19 105.704 369.204 103.553C367.218 101.403 365.261 99.4845 364.531 98.7938L359.129 95.7701L353.434 98.7938H348.323C347.496 95.8634 345.257 89.5417 342.921 87.6981C340.585 85.8545 337.47 91.4154 336.204 94.4262L324.377 106.241L320.726 110.833V115.032C318.926 116.731 314.827 119.94 312.841 119.187C310.359 118.246 309.629 120.8 311.089 125.056C312.257 128.46 309.337 129.498 307.731 129.591L287.435 134.687C285.906 135.023 282.614 135.695 281.675 135.695C280.5 135.695 277.592 137.206 274.237 137.206C270.881 137.206 266.966 138.214 265.792 138.214C264.617 138.214 257.347 140.286 254.439 141.126C252.113 141.798 248.287 142.862 246.666 143.31C244.13 143.87 238.456 144.99 236.04 144.99H231.622C230.447 144.99 227.763 144.99 225.358 143.31C222.953 141.63 212.329 143.31 194.433 144.99H187.162H184.254L183.248 143.31C182.353 142.638 180.295 141.261 179.221 141.126C177.879 140.958 177.375 140.118 179.221 138.214C180.697 136.691 180.731 135.9 180.563 135.695H175.642C173.405 135.695 171.447 135.863 170.441 135.695C169.434 135.527 167.868 133.679 166.694 131.999C165.754 130.655 159.219 131.439 156.068 131.999C147.259 131.999 153.842 130.845 150.979 129.591C147.4 128.023 147.623 128.751 150.979 125.056C153.663 122.099 153.551 120.987 153.16 120.8C154.129 120.576 156.068 119.557 156.068 117.272C156.068 114.988 157.746 114.827 158.585 115.032C160.281 115.032 163.875 114.192 164.68 110.833C165.486 107.473 177.171 106.372 179.091 106.241L179.237 102.051C178.547 102.499 178.549 102.613 173.18 103.553C166.469 104.729 170.776 102.881 163.673 103.553C156.571 104.225 160.989 105.065 152.88 101.034C150.195 99.0178 149.133 98.9618 147.79 98.7938C146.448 98.6259 143.764 98.4579 145.274 95.7701C147.79 94.0903 144.435 94.4262 139.514 94.4262C138.306 95.5013 137.221 94.8742 136.829 94.4262C136.028 94.3142 131.997 93.8887 122.289 93.0824C118.799 92.948 117.777 91.8691 117.703 91.3465H114.18C114.459 90.8985 114.851 90.0026 114.18 90.0026H111.104Z" fill="#1B003F"/>
<path d="M227.763 102.042C225.955 102.042 220.005 102.051 216.471 102.051L216.617 105.566L231.622 106.241L236.04 107.585C236.487 108.612 237.718 110.698 239.06 110.833C240.738 111.001 239.06 112.177 239.06 113.185V115.032H243.142C244.485 115.032 243.702 116.526 243.142 117.272C243.59 118.224 240.599 122.75 241.002 123.288C241.404 123.825 241.213 126.803 246.666 125.045C247.859 125.213 252.071 123.691 253.413 123.288C254.755 122.884 255.178 120.117 255.457 119.333L257.501 117.272L260.13 116.111L262.758 117.272L265.792 116.111L266.966 113.185C268.029 112.849 270.669 112.177 272.727 112.177C275.299 112.177 272.727 114.864 274.237 115.032C275.445 115.167 277.536 116.358 278.431 116.936L287.435 117.272V115.032L281.675 110.833C278.431 109.667 277.713 106.241 276.191 106.241C274.29 106.241 272.502 106.144 270.497 104.541C269.447 103.702 267.544 101.034 265.792 101.034C264.431 99.8951 260.77 98.3011 257.012 101.034C253.254 103.766 241.465 103.852 236.04 103.553L233.691 101.034H230.447L231.622 103.553L227.763 102.042Z" fill="#1B003F"/>
<path fill-rule="evenodd" clip-rule="evenodd" d="M196.304 7.23781H197.863C197.843 7.19806 197.822 7.1304 197.835 7.07485C197.821 7.00634 197.835 6.93698 197.917 6.89612C197.999 6.85495 198.046 6.85719 198.085 6.8772C198.123 6.85719 198.171 6.85495 198.253 6.89612C198.335 6.93698 198.349 7.00634 198.334 7.07485C198.347 7.1304 198.326 7.19806 198.306 7.23781H199.866L198.55 7.67713L198.745 8.16526L198.306 8.55576V9.15987L199.188 9.15987L203.74 12.3363H192.43L196.983 9.15987L197.863 9.15987V8.55576L197.425 8.16526L197.619 7.67713L196.304 7.23781ZM198.058 9.15987H198.085H198.111V7.97001L198.085 7.86962L198.058 7.97001V9.15987ZM192.234 12.6336H203.768V12.7752H192.234V12.6336ZM192.234 13.1426V13.6517H192.234L192.341 13.7326L192.701 14.0021L192.713 14.0111H192.728H193.266H193.281L193.293 14.0021L193.401 13.9213L193.652 13.7326L193.76 13.6518H203.768V13.1426H192.234ZM192.623 13.8314H193.371L193.491 13.7416H192.503L192.623 13.8314ZM192.683 20.44V14.101H192.772L192.772 20.4396H192.862V14.101H192.952V20.4396H193.042V14.101H193.132L193.132 20.4396H193.221V14.101H193.311V20.4396H194.719V14.1011H194.809V20.4396H194.899L194.899 14.1011H194.989V20.4396H195.079V14.1011H195.168V20.4396H195.258L195.258 14.1011H195.348V20.4396H200.655V14.101H200.745V20.4396H200.835L200.835 14.101H200.925V20.4396H201.015V14.101H201.104V20.4396H201.194V14.101H201.284V20.4396H202.691V14.101H202.781V20.4396H202.87L202.87 14.101H202.96V20.4396H203.05V14.101H203.14V20.4396H203.229V14.101H203.319V20.44H203.429V21.1188L203.429 20.921H192.574V20.44H192.683ZM196.135 21.2884H199.697L199.805 21.3366L199.912 21.3845H195.921L196.028 21.3366L196.135 21.2884ZM194.988 21.458L195.076 21.4973L195.088 21.5027H195.103H195.642H195.657L195.669 21.4973L195.757 21.458H200.076L200.164 21.4974L200.176 21.5027H200.191H200.729H200.744L200.756 21.4974L200.844 21.458H203.263V24.9937H200.774V21.5563H200.685V24.9937H200.595V21.5563H200.505V24.9937H200.415V21.5563H200.325V24.9937H200.236L200.236 21.5563H200.146V24.9937H199.358V23.4946H196.474V24.9937H195.687V21.5563H195.597V24.9937H195.507L195.507 21.5563H195.417V24.9937H195.327V21.5563H195.238V24.9937H195.148L195.148 21.5563H195.058V24.9937H192.747V21.458H194.988ZM195.771 21.3845H194.974L194.878 21.3419H195.866L195.771 21.3845ZM194.824 21.3845H192.747V21.2884H194.609L194.717 21.3366L194.824 21.3845ZM203.263 21.3845V21.2884H201.223L201.116 21.3366L201.009 21.3845H203.263ZM200.061 21.3845H200.859L200.954 21.342H199.966L200.061 21.3845ZM200.685 25.3612H200.595L200.505 25.3613L200.415 25.3612L200.325 25.3613L200.236 25.3612L200.146 25.3613L195.687 25.3612L195.597 25.3612L195.507 25.3612L195.417 25.3612L195.327 25.3612L195.238 25.3612L195.148 25.3612L195.058 25.3612L187.489 25.3612V25.8962C187.518 25.6898 187.695 25.531 187.909 25.531C188.14 25.531 188.328 25.7158 188.333 25.9456C188.338 25.7158 188.526 25.531 188.757 25.531C188.988 25.531 189.176 25.7158 189.181 25.9456C189.186 25.7158 189.374 25.531 189.605 25.531C189.839 25.531 190.029 25.721 190.029 25.9553C190.029 26.152 189.895 26.3175 189.714 26.3655H190.345C190.163 26.3175 190.029 26.152 190.029 25.9553C190.029 25.721 190.219 25.531 190.453 25.531C190.684 25.531 190.872 25.7158 190.877 25.9456C190.883 25.7158 191.07 25.531 191.301 25.531C191.536 25.531 191.725 25.721 191.725 25.9553C191.725 26.152 191.592 26.3175 191.41 26.3655H192.041C191.86 26.3174 191.726 26.152 191.726 25.9554C191.726 25.721 191.916 25.5311 192.15 25.5311C192.381 25.5311 192.569 25.7161 192.574 25.9461C192.579 25.7161 192.767 25.5311 192.998 25.5311C193.229 25.5311 193.417 25.7158 193.422 25.9457C193.427 25.7158 193.615 25.5311 193.846 25.5311C194.08 25.5311 194.27 25.7211 194.27 25.9554C194.27 26.152 194.136 26.3174 193.955 26.3655H194.585C194.404 26.3174 194.27 26.152 194.27 25.9554C194.27 25.7211 194.46 25.5311 194.694 25.5311C194.925 25.5311 195.113 25.7159 195.118 25.9457C195.123 25.7159 195.311 25.5311 195.542 25.5311C195.775 25.5311 195.964 25.7187 195.966 25.9509C195.969 25.7187 196.158 25.5311 196.39 25.5311C196.621 25.5311 196.809 25.7159 196.814 25.9457C196.819 25.7159 197.007 25.5311 197.238 25.5311C197.469 25.5311 197.657 25.7159 197.662 25.9457C197.667 25.7159 197.855 25.5311 198.086 25.5311C198.32 25.5311 198.51 25.7211 198.51 25.9554C198.51 26.152 198.376 26.3174 198.195 26.3655H198.826C198.644 26.3174 198.511 26.152 198.511 25.9554C198.511 25.7211 198.7 25.5311 198.935 25.5311C199.166 25.5311 199.353 25.7159 199.359 25.9457C199.364 25.7159 199.551 25.5311 199.782 25.5311C200.015 25.5311 200.204 25.7187 200.206 25.9509C200.209 25.7187 200.398 25.5311 200.63 25.5311C200.861 25.5311 201.049 25.7158 201.054 25.9457C201.06 25.7158 201.247 25.5311 201.478 25.5311C201.709 25.5311 201.897 25.7159 201.902 25.9457C201.907 25.7159 202.095 25.5311 202.326 25.5311C202.56 25.5311 202.75 25.7211 202.75 25.9554C202.75 26.152 202.617 26.3174 202.435 26.3655H203.066C202.884 26.3174 202.751 26.152 202.751 25.9554C202.751 25.7211 202.941 25.5311 203.175 25.5311C203.406 25.5311 203.594 25.7159 203.599 25.9457C203.604 25.7159 203.792 25.5311 204.023 25.5311C204.257 25.5311 204.447 25.7211 204.447 25.9554C204.447 26.152 204.313 26.3174 204.132 26.3655H204.762C204.581 26.3174 204.447 26.152 204.447 25.9554C204.447 25.7211 204.637 25.5311 204.871 25.5311C205.102 25.5311 205.29 25.7158 205.295 25.9457C205.3 25.7158 205.488 25.5311 205.719 25.5311C205.953 25.5311 206.143 25.7211 206.143 25.9554C206.143 26.152 206.01 26.3174 205.828 26.3655H206.459C206.277 26.3174 206.144 26.152 206.144 25.9554C206.144 25.7211 206.334 25.5311 206.568 25.5311C206.799 25.5311 206.987 25.7158 206.992 25.9457C206.997 25.7158 207.185 25.5311 207.416 25.5311C207.647 25.5311 207.834 25.7159 207.84 25.9457C207.845 25.7159 208.033 25.5311 208.263 25.5311C208.498 25.5311 208.688 25.7211 208.688 25.9554C208.688 26.152 208.554 26.3174 208.372 26.3655H208.691V25.3612L200.774 25.3612H200.685ZM194.405 13.6519H194.27L194.378 13.7327L194.737 14.0022L194.749 14.0112H194.764H195.303H195.318L195.33 14.0022L195.438 13.9214L195.689 13.7327L195.797 13.6519H195.662H194.405ZM195.528 13.7417L195.408 13.8315H194.659L194.54 13.7417H195.528ZM200.207 13.6518H200.341H201.598H201.733L201.625 13.7327L201.374 13.9212L201.266 14.0022L201.254 14.0112H201.239H200.7H200.685L200.673 14.0022L200.314 13.7327L200.207 13.6518ZM201.344 13.8315H200.596L200.476 13.7417H201.464L201.344 13.8315ZM202.376 13.6518H202.242L202.349 13.7327L202.709 14.0022L202.721 14.0112H202.736H203.274H203.289L203.301 14.0022L203.409 13.9214L203.661 13.7327L203.768 13.6518L203.634 13.6518H202.376ZM202.511 13.7417L202.631 13.8315H203.379L203.499 13.7417H202.511ZM187.489 27.5672V27.2281H208.691V27.5672H187.489ZM208.691 27.0443H187.489V26.8886H208.691V27.0443ZM208.691 26.7049H187.489V26.5492H208.691V26.7049ZM187.8 26.3655H187.489V26.0144C187.513 26.1846 187.637 26.3224 187.8 26.3655ZM188.648 26.3655C188.47 26.3183 188.337 26.1575 188.333 25.965C188.329 26.1575 188.196 26.3183 188.018 26.3655H188.648ZM188.866 26.3655H189.496C189.318 26.3183 189.185 26.1575 189.181 25.965C189.177 26.1575 189.044 26.3183 188.866 26.3655ZM205.61 26.3655C205.432 26.3182 205.3 26.1574 205.295 25.9651C205.291 26.1574 205.159 26.3182 204.98 26.3655H205.61ZM207.307 26.3655C207.128 26.3182 206.996 26.1574 206.992 25.9651C206.987 26.1574 206.855 26.3182 206.677 26.3655H207.307ZM207.525 26.3655H208.155C207.976 26.3182 207.844 26.1574 207.84 25.965C207.835 26.1574 207.703 26.3182 207.525 26.3655ZM203.599 25.965C203.603 26.1574 203.735 26.3182 203.914 26.3655H203.284C203.462 26.3182 203.594 26.1574 203.599 25.965ZM201.902 25.9651C201.907 26.1574 202.039 26.3182 202.217 26.3655H201.587C201.766 26.3182 201.898 26.1574 201.902 25.9651ZM201.054 25.9651C201.059 26.1574 201.191 26.3182 201.369 26.3655H200.739C200.918 26.3182 201.05 26.1574 201.054 25.9651ZM200.206 25.9599C200.209 26.1546 200.342 26.3178 200.522 26.3655H199.891C200.071 26.3178 200.204 26.1546 200.206 25.9599ZM195.966 25.9599C195.964 26.1546 195.831 26.3178 195.651 26.3655H196.281C196.101 26.3178 195.968 26.1546 195.966 25.9599ZM197.129 26.3655C196.951 26.3182 196.819 26.1574 196.814 25.9651C196.81 26.1574 196.678 26.3182 196.499 26.3655H197.129ZM197.977 26.3655C197.799 26.3182 197.666 26.1574 197.662 25.9651C197.658 26.1574 197.526 26.3182 197.347 26.3655H197.977ZM199.044 26.3655H199.673C199.495 26.3182 199.363 26.1574 199.359 25.965C199.354 26.1574 199.222 26.3182 199.044 26.3655ZM195.118 25.965C195.123 26.1574 195.255 26.3182 195.433 26.3655H194.803C194.982 26.3182 195.114 26.1574 195.118 25.965ZM193.422 25.9651C193.426 26.1574 193.558 26.3182 193.737 26.3655H193.107C193.285 26.3182 193.418 26.1574 193.422 25.9651ZM192.574 25.9647C192.578 26.1572 192.71 26.3181 192.889 26.3655H192.259C192.437 26.3182 192.57 26.1572 192.574 25.9647ZM190.562 26.3655H191.193C191.014 26.3183 190.882 26.1574 190.877 25.965C190.873 26.1574 190.741 26.3183 190.562 26.3655ZM208.691 30.8625V31.9516H202.543V28.6696H208.691V30.6274C208.44 30.4124 208.113 30.2827 207.756 30.2827C206.96 30.2827 206.314 30.9285 206.314 31.7251H206.484C206.484 31.0222 207.053 30.4524 207.756 30.4524C208.126 30.4524 208.459 30.6103 208.691 30.8625ZM202.433 28.6696V31.9516H202.323V28.6696H202.433ZM202.214 28.6696V31.9516H202.104V28.6696H202.214ZM201.994 28.6696V31.9516H201.884V28.6696H201.994ZM201.775 28.6696V31.9516H194.061V28.6696H201.775ZM193.951 28.6696V31.9516H193.842V28.6696H193.951ZM193.732 28.6696V31.9516H193.622V28.6696H193.732ZM193.512 28.6696V31.9516H193.403V28.6696H193.512ZM193.293 28.6696V31.9516H187.489V30.7049C187.701 30.5463 187.965 30.4524 188.25 30.4524C188.953 30.4524 189.522 31.0222 189.522 31.7251H189.692C189.692 30.9285 189.046 30.2827 188.25 30.2827C187.971 30.2827 187.71 30.3621 187.489 30.4996V28.6696H193.293ZM187.489 33.3371H192.86L192.876 33.3606L193.183 33.8107L193.315 34.0037L193.329 34.0251H193.348H194.006H194.025L194.039 34.0037L194.478 33.3606L194.494 33.3371H201.342L201.358 33.3606L201.665 33.8107L201.797 34.0037L201.811 34.0251H201.83H202.488H202.506L202.521 34.0037L202.96 33.3606L202.976 33.3371H208.691V47.7484L210.956 49.2204L210.801 49.4593H210.894V55.9081H204.136V49.4593H203.769V49.2756H202.543V46.4046H208.01V46.2209H202.543V42.1621H208.01V41.9783H202.543V38.2588H208.01V38.0751H202.543V34.3556H208.01V34.1719H187.995V34.3556H193.293V38.0751H187.995V38.2588H193.293V41.9783H187.995V42.1621H193.293V46.2209H187.995V46.4046H193.293V49.2756H192.066V49.4593H191.896V55.7102H191.727V55.9081H184.942V49.4593H185.032L184.877 49.2204L187.489 47.523V33.3371ZM203.769 56.0776L192.263 56.0776L191.896 56.0777L181.383 56.0776L180.329 56.0777V55.5641L180.767 55.1736L180.572 54.6855L181.888 54.2462H180.329C180.361 54.1811 180.397 54.0412 180.28 54.0021C180.228 53.9849 180.195 53.9556 180.165 53.9291C180.11 53.8804 180.065 53.8413 179.939 53.9045C179.783 53.9826 179.874 54.1648 179.939 54.2462L180.134 54.9784V56.0777H179.685V57.605L181.28 58.8653L181.277 58.9625H214.728L214.725 58.867L216.322 57.605V56.0777H215.869V54.9784L216.064 54.2462C216.129 54.1648 216.22 53.9826 216.064 53.9045C215.938 53.8413 215.894 53.8804 215.838 53.9291C215.808 53.9556 215.775 53.9849 215.723 54.0021C215.606 54.0412 215.642 54.1811 215.675 54.2462H214.115L215.431 54.6855L215.236 55.1736L215.675 55.5641V56.0777H214.628L214.627 56.0775L204.136 56.0776H203.769ZM203.769 54.5504V55.7102H192.263V54.5504H203.769ZM203.769 54.3667H192.263V52.8534H203.769V54.3667ZM203.769 52.6697H192.263V51.1563H203.769V52.6697ZM203.769 50.9726H192.263V49.4593L203.769 49.4593L203.769 50.9726ZM203.806 49.3745L207.33 47.0843L207.231 47.2376L210.65 49.4593H208.691V49.3745H203.806ZM187.489 49.4593H185.184L188.603 47.2376L188.503 47.0839L188.504 47.0834L192.029 49.3745H187.489V49.4593ZM181.236 60.0649L181.091 63.9695H181.382V63.6863H184.265V60.0649H181.236ZM184.632 60.0649V63.6863H211.234V60.0649H184.632ZM214.627 63.6863H211.602V60.0649H214.766L214.901 63.9695H214.627V63.6863ZM178.839 124.808L181.05 65.0719H214.939L217.003 124.808L201.907 124.808V124.469L211.575 124.469H211.942L214.628 124.469V124.101H211.942V65.0719H211.575V120.707H209.668V113.138H209.559V120.707H209.449V113.138H209.339V120.707H209.229V113.138H209.12V120.707H209.01V113.138H208.9V120.707H205.767V113.138H205.657V120.707H205.547V113.138H205.438V120.707H205.328V113.138H205.218V120.707H205.108V113.138H204.999V120.707H201.907V118.104V117.001H201.83C202.06 116.996 202.245 116.808 202.245 116.577C202.245 116.409 202.147 116.264 202.006 116.195H202.117L200.867 115.461L198.004 113.777L195.141 115.461L193.891 116.195H194.003C193.862 116.264 193.764 116.409 193.764 116.577C193.764 116.808 193.949 116.996 194.179 117.001H194.105V118.104V123.705V124.101H184.464V121.074H194.103V120.707H191.01V113.138H190.901V120.707H190.791V113.138H190.681V120.707H190.571V113.138H190.462V120.707H190.352V113.138H190.242V120.707H187.109V113.138H186.999V120.707H186.889V113.138H186.78V120.707H186.67V113.138H186.56V120.707H186.45V113.138H186.341V120.707H184.464V112.589H185.792L185.923 112.688L186.231 112.919L186.362 113.017L186.377 113.028H186.395H187.054H187.072L187.087 113.017L187.526 112.688L187.657 112.589H189.693L189.825 112.688L190.132 112.919L190.264 113.017L190.279 113.028H190.297H190.955H190.974L190.988 113.017L191.427 112.688L191.559 112.589H204.45L204.582 112.688L204.889 112.919L205.021 113.017L205.035 113.028H205.054H205.712H205.73L205.745 113.017L206.184 112.688L206.316 112.589H208.352L208.483 112.688L208.79 112.919L208.922 113.017L208.937 113.028H208.955H209.614H209.632L209.647 113.017L210.086 112.688L210.217 112.589H211.574V112.222H184.464V112.08H211.574V111.713H210.792C210.952 111.652 211.065 111.497 211.065 111.316C211.065 111.082 210.875 110.892 210.641 110.892C210.41 110.892 210.222 111.077 210.217 111.307C210.211 111.077 210.024 110.892 209.793 110.892C209.562 110.892 209.374 111.077 209.369 111.307C209.364 111.077 209.176 110.892 208.945 110.892C208.711 110.892 208.521 111.082 208.521 111.316C208.521 111.497 208.634 111.652 208.793 111.713H208.248C208.407 111.652 208.52 111.497 208.52 111.316C208.52 111.082 208.33 110.892 208.096 110.892C207.869 110.892 207.683 111.071 207.673 111.296C207.662 111.071 207.477 110.892 207.249 110.892C207.015 110.892 206.825 111.082 206.825 111.316C206.825 111.497 206.938 111.652 207.097 111.713H206.552C206.712 111.652 206.825 111.497 206.825 111.316C206.825 111.082 206.635 110.892 206.401 110.892C206.17 110.892 205.982 111.077 205.977 111.307C205.971 111.077 205.784 110.892 205.553 110.892C205.318 110.892 205.129 111.082 205.129 111.316C205.129 111.497 205.242 111.652 205.401 111.713H204.856C205.015 111.652 205.128 111.497 205.128 111.316C205.128 111.082 204.938 110.892 204.704 110.892C204.473 110.892 204.285 111.077 204.28 111.307C204.275 111.077 204.087 110.892 203.856 110.892C203.625 110.892 203.437 111.077 203.432 111.307C203.427 111.077 203.239 110.892 203.008 110.892C202.774 110.892 202.584 111.082 202.584 111.316C202.584 111.497 202.697 111.652 202.856 111.713H202.312C202.471 111.652 202.584 111.497 202.584 111.316C202.584 111.082 202.394 110.892 202.16 110.892C201.929 110.892 201.741 111.077 201.736 111.307C201.731 111.077 201.543 110.892 201.312 110.892C201.081 110.892 200.893 111.077 200.888 111.307C200.883 111.077 200.695 110.892 200.464 110.892C200.23 110.892 200.04 111.082 200.04 111.316C200.04 111.497 200.153 111.652 200.312 111.713H199.767C199.926 111.652 200.039 111.497 200.039 111.316C200.039 111.082 199.85 110.892 199.615 110.892C199.384 110.892 199.197 111.077 199.191 111.307C199.186 111.077 198.999 110.892 198.768 110.892C198.537 110.892 198.349 111.077 198.344 111.307C198.338 111.077 198.151 110.892 197.92 110.892C197.689 110.892 197.501 111.077 197.496 111.307C197.491 111.077 197.303 110.892 197.072 110.892C196.838 110.892 196.648 111.082 196.648 111.316C196.648 111.497 196.761 111.652 196.92 111.713H196.375C196.534 111.652 196.647 111.497 196.647 111.316C196.647 111.082 196.457 110.892 196.223 110.892C195.992 110.892 195.804 111.077 195.799 111.307C195.794 111.077 195.606 110.892 195.375 110.892C195.144 110.892 194.957 111.077 194.951 111.307C194.946 111.077 194.758 110.892 194.527 110.892C194.293 110.892 194.103 111.082 194.103 111.316C194.103 111.497 194.216 111.652 194.376 111.713H193.831C193.99 111.652 194.103 111.497 194.103 111.316C194.103 111.082 193.913 110.892 193.679 110.892C193.448 110.892 193.26 111.077 193.255 111.307C193.25 111.077 193.062 110.892 192.831 110.892C192.6 110.892 192.412 111.077 192.407 111.307C192.402 111.077 192.214 110.892 191.983 110.892C191.752 110.892 191.564 111.077 191.559 111.307C191.554 111.077 191.366 110.892 191.135 110.892C190.901 110.892 190.711 111.082 190.711 111.316C190.711 111.497 190.824 111.652 190.983 111.713H190.439C190.598 111.652 190.711 111.497 190.711 111.316C190.711 111.082 190.521 110.892 190.287 110.892C190.056 110.892 189.868 111.077 189.863 111.307C189.858 111.077 189.67 110.892 189.439 110.892C189.208 110.892 189.02 111.077 189.015 111.307C189.01 111.077 188.822 110.892 188.591 110.892C188.357 110.892 188.167 111.082 188.167 111.316C188.167 111.497 188.28 111.652 188.439 111.713H187.894C188.053 111.652 188.166 111.497 188.166 111.316C188.166 111.082 187.977 110.892 187.742 110.892C187.511 110.892 187.324 111.077 187.318 111.307C187.313 111.077 187.125 110.892 186.895 110.892C186.66 110.892 186.47 111.082 186.47 111.316C186.47 111.497 186.583 111.652 186.743 111.713H186.198C186.357 111.652 186.47 111.497 186.47 111.316C186.47 111.082 186.28 110.892 186.046 110.892C185.818 110.892 185.633 111.071 185.622 111.296C185.612 111.071 185.426 110.892 185.199 110.892C184.965 110.892 184.775 111.082 184.775 111.316C184.775 111.497 184.888 111.652 185.047 111.713H184.464V110.722H211.574V110.355H206.784V106.14H211.573V105.957H206.784V100.71H211.573V100.526H206.784V95.2794H211.573V95.0957H206.784V89.8488H211.573V89.6651H206.784V84.4183H211.573V84.2346H206.784V78.9878H211.573V78.8041H206.784V73.5573H211.573V73.3735H206.784V68.1267H211.573V67.9429H184.464V65.0719H184.096V120.707H184.096V121.074H184.096V124.101H181.383V124.469L184.096 124.469H184.464L194.105 124.469V124.808L178.839 124.808ZM206.674 100.71V105.957H206.564V100.71H206.674ZM206.674 106.14H206.564V110.355H206.674V106.14ZM206.455 100.71V105.957H206.345V100.71H206.455ZM206.455 106.14H206.345V110.355H206.455V106.14ZM206.235 100.71V105.957H206.125V100.71H206.235ZM206.235 106.14H206.125V110.355H206.235V106.14ZM206.016 100.71V105.957H201.186V100.71H206.016ZM206.016 106.14H201.186V110.355H206.016V106.14ZM201.077 100.71V105.957H200.967V100.71H201.077ZM201.077 110.355V106.14H200.967V110.355H201.077ZM200.857 100.71V105.957H200.747V100.71H200.857ZM200.857 106.14H200.747V110.355H200.857V106.14ZM200.638 100.71V105.957H200.528V100.71H200.638ZM200.528 106.14V110.355H200.638V106.14H200.528ZM200.418 100.71V105.957H195.59V100.71H200.418ZM200.418 106.14H195.59V110.355H200.418V106.14ZM195.48 100.71V105.957H195.37V100.71H195.48ZM195.48 106.14H195.37V110.355H195.48V106.14ZM195.26 100.71V105.957H195.151V100.71H195.26ZM195.26 106.14H195.151V110.355H195.26V106.14ZM195.041 100.71V105.957H194.931V100.71H195.041ZM195.041 106.14H194.931V110.355H195.041V106.14ZM194.821 100.71V105.957H189.992V100.71H194.821ZM194.821 106.14H189.992V110.355H194.821V106.14ZM189.882 100.71V105.957H189.773V100.71H189.882ZM189.882 106.14H189.773V110.355H189.882V106.14ZM189.663 100.71V105.957H189.553V100.71H189.663ZM189.663 106.14H189.553V110.355H189.663V106.14ZM189.443 100.71V105.957H189.334V100.71H189.443ZM189.443 106.14H189.334V110.355H189.443V106.14ZM189.224 100.71V105.957H184.464V100.71H189.224ZM189.224 106.14H184.464V110.355H189.224V106.14ZM206.674 100.526V95.2794H206.564V100.526H206.674ZM206.455 100.526V95.2794H206.345V100.526H206.455ZM206.235 100.526V95.2794H206.125V100.526H206.235ZM206.016 100.526V95.2794H201.186V100.526H206.016ZM201.077 100.526V95.2794H200.967V100.526H201.077ZM200.857 100.526V95.2794H200.747V100.526H200.857ZM200.638 100.526V95.2794H200.528V100.526H200.638ZM200.418 100.526V95.2794H195.59V100.526H200.418ZM195.48 100.526V95.2794H195.37V100.526H195.48ZM195.26 100.526V95.2794H195.151V100.526H195.26ZM195.041 100.526V95.2794H194.931V100.526H195.041ZM194.821 100.526V95.2794H189.992V100.526H194.821ZM189.882 100.526V95.2794H189.773V100.526H189.882ZM189.663 100.526V95.2794H189.553V100.526H189.663ZM189.443 100.526V95.2794H189.334V100.526H189.443ZM189.224 100.526V95.2794H184.464V100.526H189.224ZM206.674 89.8488V95.0957H206.564V89.8488H206.674ZM206.455 89.8488V95.0957H206.345V89.8488H206.455ZM206.235 89.8488V95.0957H206.125V89.8488H206.235ZM206.016 89.8488V95.0957H201.186V89.8488H206.016ZM201.077 89.8488V95.0957H200.967V89.8488H201.077ZM200.857 89.8488V95.0957H200.747V89.8488H200.857ZM200.638 89.8488V95.0957H200.528V89.8488H200.638ZM200.418 89.8488V95.0957H195.59V89.8488H200.418ZM195.48 89.8488V95.0957H195.37V89.8488H195.48ZM195.26 89.8488V95.0957H195.151V89.8488H195.26ZM195.041 89.8488V95.0957H194.931V89.8488H195.041ZM194.821 89.8488V95.0957H189.992V89.8488H194.821ZM189.882 89.8488V95.0957H189.773V89.8488H189.882ZM189.663 89.8488V95.0957H189.553V89.8488H189.663ZM189.443 89.8488V95.0957H189.334V89.8488H189.443ZM189.224 89.8488V95.0957H184.464V89.8488H189.224ZM206.674 89.6651V84.4183H206.564V89.6651H206.674ZM206.455 89.6651V84.4183H206.345V89.6651H206.455ZM206.235 89.6651V84.4183H206.125V89.6651H206.235ZM206.016 89.6651V84.4183H201.186V89.6651H206.016ZM201.077 89.6651V84.4183H200.967V89.6651H201.077ZM200.857 89.6651V84.4183H200.747V89.6651H200.857ZM200.638 89.6651V84.4183H200.528V89.6651H200.638ZM200.418 89.6651V84.4183H195.59V89.6651H200.418ZM195.48 89.6651V84.4183H195.37V89.6651H195.48ZM195.26 89.6651V84.4183H195.151V89.6651H195.26ZM195.041 89.6651V84.4183H194.931V89.6651H195.041ZM194.821 89.6651V84.4183H189.992V89.6651H194.821ZM189.882 89.6651V84.4183H189.773V89.6651H189.882ZM189.663 89.6651V84.4183H189.553V89.6651H189.663ZM189.443 89.6651V84.4183H189.334V89.6651H189.443ZM189.224 89.6651V84.4183H184.464V89.6651H189.224ZM206.674 78.9878V84.2346H206.564V78.9878H206.674ZM206.455 78.9878V84.2346H206.345V78.9878H206.455ZM206.235 78.9878V84.2346H206.125V78.9878H206.235ZM206.016 78.9878V84.2346H201.186V78.9878H206.016ZM201.077 78.9878V84.2346H200.967V78.9878H201.077ZM200.857 78.9878V84.2346H200.747V78.9878H200.857ZM200.638 78.9878V84.2346H200.528V78.9878H200.638ZM200.418 78.9878V84.2346H195.59V78.9878H200.418ZM195.48 78.9878V84.2346H195.37V78.9878H195.48ZM195.26 78.9878V84.2346H195.151V78.9878H195.26ZM195.041 78.9878V84.2346H194.931V78.9878H195.041ZM194.821 78.9878V84.2346H189.992V78.9878H194.821ZM189.882 78.9878V84.2346H189.773V78.9878H189.882ZM189.663 78.9878V84.2346H189.553V78.9878H189.663ZM189.443 78.9878V84.2346H189.334V78.9878H189.443ZM189.224 78.9878V84.2346H184.464V78.9878H189.224ZM206.674 78.8041V73.5573H206.564V78.8041H206.674ZM206.455 78.8041V73.5573H206.345V78.8041H206.455ZM206.235 78.8041V73.5573H206.125V78.8041H206.235ZM206.016 78.8041V73.5573H201.186V78.8041H206.016ZM201.077 78.8041V73.5573H200.967V78.8041H201.077ZM200.857 78.8041V73.5573H200.747V78.8041H200.857ZM200.638 78.8041V73.5573H200.528V78.8041H200.638ZM200.418 78.8041V73.5573H195.59V78.8041H200.418ZM195.48 78.8041V73.5573H195.37V78.8041H195.48ZM195.26 78.8041V73.5573H195.151V78.8041H195.26ZM195.041 78.8041V73.5573H194.931V78.8041H195.041ZM194.821 78.8041V73.5573H189.992V78.8041H194.821ZM189.882 78.8041V73.5573H189.773V78.8041H189.882ZM189.663 78.8041V73.5573H189.553V78.8041H189.663ZM189.443 78.8041V73.5573H189.334V78.8041H189.443ZM189.224 78.8041V73.5573H184.464V78.8041H189.224ZM206.674 68.1267V73.3735H206.564V68.1267H206.674ZM206.455 68.1267V73.3735H206.345V68.1267H206.455ZM206.235 68.1267V73.3735H206.125V68.1267H206.235ZM206.016 68.1267V73.3735H201.186V68.1267H206.016ZM201.077 68.1267V73.3735H200.967V68.1267H201.077ZM200.857 68.1267V73.3735H200.747V68.1267H200.857ZM200.638 68.1267V73.3735H200.528V68.1267H200.638ZM200.418 68.1267V73.3735H195.59V68.1267H200.418ZM195.48 68.1267V73.3735H195.37V68.1267H195.48ZM195.26 68.1267V73.3735H195.151V68.1267H195.26ZM195.041 68.1267V73.3735H194.931V68.1267H195.041ZM194.821 68.1267V73.3735H189.992V68.1267H194.821ZM189.882 68.1267V73.3735H189.773V68.1267H189.882ZM189.663 68.1267V73.3735H189.553V68.1267H189.663ZM189.443 68.1267V73.3735H189.334V68.1267H189.443ZM189.224 68.1267V73.3735H184.464V68.1267H189.224ZM194.516 116.309H201.493C201.532 116.261 201.58 116.222 201.636 116.195H200.668H195.341H194.373C194.429 116.222 194.477 116.261 194.516 116.309ZM194.197 117.001C194.332 116.999 194.452 116.933 194.527 116.832H201.482C201.557 116.933 201.677 116.999 201.812 117.001H200.805H195.206H194.197ZM204.28 111.326C204.276 111.503 204.164 111.653 204.008 111.713H204.552C204.396 111.653 204.284 111.503 204.28 111.326ZM198.072 111.713C198.228 111.653 198.34 111.503 198.344 111.326C198.348 111.503 198.459 111.653 198.616 111.713H198.072ZM197.496 111.326C197.5 111.503 197.611 111.653 197.768 111.713H197.224C197.38 111.653 197.492 111.503 197.496 111.326ZM191.287 111.713H191.831C191.675 111.653 191.563 111.503 191.559 111.326C191.555 111.503 191.443 111.653 191.287 111.713ZM209.945 111.713C210.101 111.653 210.213 111.503 210.217 111.326C210.221 111.503 210.332 111.653 210.489 111.713H209.945ZM209.369 111.326C209.373 111.503 209.485 111.653 209.641 111.713H209.097C209.253 111.653 209.365 111.503 209.369 111.326ZM203.16 111.713H203.704C203.548 111.653 203.436 111.503 203.432 111.326C203.428 111.503 203.317 111.653 203.16 111.713ZM195.799 111.326C195.803 111.503 195.915 111.653 196.071 111.713H195.527C195.684 111.653 195.795 111.503 195.799 111.326ZM189.015 111.326C189.011 111.503 188.899 111.653 188.743 111.713H189.287C189.131 111.653 189.019 111.503 189.015 111.326ZM189.591 111.713H190.135C189.978 111.653 189.867 111.503 189.863 111.326C189.859 111.503 189.747 111.653 189.591 111.713ZM207.673 111.337C207.681 111.509 207.791 111.654 207.944 111.713H207.401C207.554 111.654 207.665 111.509 207.673 111.337ZM200.888 111.326C200.884 111.503 200.772 111.653 200.616 111.713H201.16C201.004 111.653 200.892 111.503 200.888 111.326ZM201.464 111.713H202.008C201.852 111.653 201.74 111.503 201.736 111.326C201.732 111.503 201.62 111.653 201.464 111.713ZM194.679 111.713C194.836 111.653 194.947 111.503 194.951 111.326C194.955 111.503 195.067 111.653 195.223 111.713H194.679ZM187.318 111.326C187.314 111.503 187.203 111.653 187.046 111.713H187.591C187.434 111.653 187.322 111.503 187.318 111.326ZM205.977 111.326C205.981 111.503 206.092 111.653 206.249 111.713H205.705C205.861 111.653 205.973 111.503 205.977 111.326ZM199.191 111.326C199.188 111.503 199.076 111.653 198.919 111.713H199.464C199.307 111.653 199.195 111.503 199.191 111.326ZM192.983 111.713C193.139 111.653 193.251 111.503 193.255 111.326C193.259 111.503 193.371 111.653 193.527 111.713H192.983ZM192.407 111.326C192.411 111.503 192.523 111.653 192.679 111.713H192.135C192.291 111.653 192.403 111.503 192.407 111.326ZM185.622 111.337C185.614 111.509 185.504 111.654 185.351 111.713H185.894C185.741 111.654 185.63 111.509 185.622 111.337ZM201.907 121.074V123.705V124.101H211.575V121.074H201.907ZM200.319 118.104H195.69V123.705H196.988V121.753H199.023V123.705H200.319V118.104ZM200.409 118.104V123.705H200.499V118.104H200.409ZM200.589 118.104V123.705H200.679V118.104H200.589ZM200.768 118.104H200.805V123.705H200.768L200.768 118.104ZM195.601 123.705V118.104H195.511L195.511 123.705H195.601ZM195.421 123.705V118.104H195.331V123.705H195.421ZM195.241 123.705V118.104H195.206V123.705H195.241ZM196.591 115.461L198.004 114.63L199.418 115.461H196.591ZM186.267 112.809H187.182L187.328 112.699H186.121L186.267 112.809ZM205.84 112.809H204.925L204.779 112.699H205.986L205.84 112.809ZM190.169 112.809H191.084L191.23 112.699H190.023L190.169 112.809ZM209.742 112.809H208.827L208.681 112.699H209.888L209.742 112.809ZM185.256 111.316C185.256 111.348 185.23 111.373 185.199 111.373C185.167 111.373 185.142 111.348 185.142 111.316C185.142 111.285 185.167 111.26 185.199 111.26C185.23 111.26 185.256 111.285 185.256 111.316ZM191.983 111.373C192.015 111.373 192.04 111.348 192.04 111.316C192.04 111.285 192.015 111.26 191.983 111.26C191.952 111.26 191.926 111.285 191.926 111.316C191.926 111.348 191.952 111.373 191.983 111.373ZM198.824 111.316C198.824 111.348 198.799 111.373 198.768 111.373C198.736 111.373 198.711 111.348 198.711 111.316C198.711 111.285 198.736 111.26 198.768 111.26C198.799 111.26 198.824 111.285 198.824 111.316ZM205.553 111.373C205.584 111.373 205.609 111.348 205.609 111.316C205.609 111.285 205.584 111.26 205.553 111.26C205.521 111.26 205.496 111.285 205.496 111.316C205.496 111.348 205.521 111.373 205.553 111.373ZM186.951 111.316C186.951 111.348 186.926 111.373 186.895 111.373C186.863 111.373 186.838 111.348 186.838 111.316C186.838 111.285 186.863 111.26 186.895 111.26C186.926 111.26 186.951 111.285 186.951 111.316ZM193.679 111.373C193.71 111.373 193.736 111.348 193.736 111.316C193.736 111.285 193.71 111.26 193.679 111.26C193.648 111.26 193.622 111.285 193.622 111.316C193.622 111.348 193.648 111.373 193.679 111.373ZM200.521 111.316C200.521 111.348 200.495 111.373 200.464 111.373C200.433 111.373 200.407 111.348 200.407 111.316C200.407 111.285 200.433 111.26 200.464 111.26C200.495 111.26 200.521 111.285 200.521 111.316ZM207.249 111.373C207.28 111.373 207.306 111.348 207.306 111.316C207.306 111.285 207.28 111.26 207.249 111.26C207.218 111.26 207.192 111.285 207.192 111.316C207.192 111.348 207.218 111.373 207.249 111.373ZM188.648 111.316C188.648 111.348 188.622 111.373 188.591 111.373C188.56 111.373 188.534 111.348 188.534 111.316C188.534 111.285 188.56 111.26 188.591 111.26C188.622 111.26 188.648 111.285 188.648 111.316ZM195.375 111.373C195.407 111.373 195.432 111.348 195.432 111.316C195.432 111.285 195.407 111.26 195.375 111.26C195.344 111.26 195.319 111.285 195.319 111.316C195.319 111.348 195.344 111.373 195.375 111.373ZM202.217 111.316C202.217 111.348 202.191 111.373 202.16 111.373C202.128 111.373 202.103 111.348 202.103 111.316C202.103 111.285 202.128 111.26 202.16 111.26C202.191 111.26 202.217 111.285 202.217 111.316ZM208.945 111.373C208.976 111.373 209.002 111.348 209.002 111.316C209.002 111.285 208.976 111.26 208.945 111.26C208.913 111.26 208.888 111.285 208.888 111.316C208.888 111.348 208.913 111.373 208.945 111.373ZM190.343 111.316C190.343 111.348 190.318 111.373 190.287 111.373C190.255 111.373 190.23 111.348 190.23 111.316C190.23 111.285 190.255 111.26 190.287 111.26C190.318 111.26 190.343 111.285 190.343 111.316ZM197.072 111.373C197.103 111.373 197.129 111.348 197.129 111.316C197.129 111.285 197.103 111.26 197.072 111.26C197.04 111.26 197.015 111.285 197.015 111.316C197.015 111.348 197.04 111.373 197.072 111.373ZM203.913 111.316C203.913 111.348 203.888 111.373 203.856 111.373C203.825 111.373 203.799 111.348 203.799 111.316C203.799 111.285 203.825 111.26 203.856 111.26C203.888 111.26 203.913 111.285 203.913 111.316ZM210.641 111.373C210.672 111.373 210.697 111.348 210.697 111.316C210.697 111.285 210.672 111.26 210.641 111.26C210.609 111.26 210.584 111.285 210.584 111.316C210.584 111.348 210.609 111.373 210.641 111.373ZM186.103 111.316C186.103 111.348 186.077 111.373 186.046 111.373C186.015 111.373 185.989 111.348 185.989 111.316C185.989 111.285 186.015 111.26 186.046 111.26C186.077 111.26 186.103 111.285 186.103 111.316ZM192.831 111.373C192.862 111.373 192.888 111.348 192.888 111.316C192.888 111.285 192.862 111.26 192.831 111.26C192.8 111.26 192.774 111.285 192.774 111.316C192.774 111.348 192.8 111.373 192.831 111.373ZM199.672 111.316C199.672 111.348 199.647 111.373 199.615 111.373C199.584 111.373 199.559 111.348 199.559 111.316C199.559 111.285 199.584 111.26 199.615 111.26C199.647 111.26 199.672 111.285 199.672 111.316ZM206.401 111.373C206.432 111.373 206.457 111.348 206.457 111.316C206.457 111.285 206.432 111.26 206.401 111.26C206.369 111.26 206.344 111.285 206.344 111.316C206.344 111.348 206.369 111.373 206.401 111.373ZM187.799 111.316C187.799 111.348 187.774 111.373 187.742 111.373C187.711 111.373 187.686 111.348 187.686 111.316C187.686 111.285 187.711 111.26 187.742 111.26C187.774 111.26 187.799 111.285 187.799 111.316ZM194.527 111.373C194.559 111.373 194.584 111.348 194.584 111.316C194.584 111.285 194.559 111.26 194.527 111.26C194.496 111.26 194.471 111.285 194.471 111.316C194.471 111.348 194.496 111.373 194.527 111.373ZM201.369 111.316C201.369 111.348 201.343 111.373 201.312 111.373C201.281 111.373 201.255 111.348 201.255 111.316C201.255 111.285 201.281 111.26 201.312 111.26C201.343 111.26 201.369 111.285 201.369 111.316ZM208.096 111.373C208.128 111.373 208.153 111.348 208.153 111.316C208.153 111.285 208.128 111.26 208.096 111.26C208.065 111.26 208.039 111.285 208.039 111.316C208.039 111.348 208.065 111.373 208.096 111.373ZM189.496 111.316C189.496 111.348 189.47 111.373 189.439 111.373C189.407 111.373 189.382 111.348 189.382 111.316C189.382 111.285 189.407 111.26 189.439 111.26C189.47 111.26 189.496 111.285 189.496 111.316ZM196.223 111.373C196.255 111.373 196.28 111.348 196.28 111.316C196.28 111.285 196.255 111.26 196.223 111.26C196.192 111.26 196.166 111.285 196.166 111.316C196.166 111.348 196.192 111.373 196.223 111.373ZM203.065 111.316C203.065 111.348 203.04 111.373 203.008 111.373C202.977 111.373 202.952 111.348 202.952 111.316C202.952 111.285 202.977 111.26 203.008 111.26C203.04 111.26 203.065 111.285 203.065 111.316ZM209.793 111.373C209.824 111.373 209.849 111.348 209.849 111.316C209.849 111.285 209.824 111.26 209.793 111.26C209.761 111.26 209.736 111.285 209.736 111.316C209.736 111.348 209.761 111.373 209.793 111.373ZM191.192 111.316C191.192 111.348 191.167 111.373 191.135 111.373C191.104 111.373 191.079 111.348 191.079 111.316C191.079 111.285 191.104 111.26 191.135 111.26C191.167 111.26 191.192 111.285 191.192 111.316ZM197.92 111.373C197.951 111.373 197.976 111.348 197.976 111.316C197.976 111.285 197.951 111.26 197.92 111.26C197.888 111.26 197.863 111.285 197.863 111.316C197.863 111.348 197.888 111.373 197.92 111.373ZM204.761 111.316C204.761 111.348 204.735 111.373 204.704 111.373C204.673 111.373 204.647 111.348 204.647 111.316C204.647 111.285 204.673 111.26 204.704 111.26C204.735 111.26 204.761 111.285 204.761 111.316ZM188.506 114.626H188.675V115.474H188.506V114.626ZM207.503 114.626H207.333V115.474H207.503V114.626ZM188.506 117.171H188.675V118.02H188.506V117.171ZM207.503 117.171H207.333V118.02H207.503V117.171ZM194.188 116.634C194.219 116.634 194.245 116.609 194.245 116.577C194.245 116.546 194.219 116.52 194.188 116.52C194.157 116.52 194.131 116.546 194.131 116.577C194.131 116.609 194.157 116.634 194.188 116.634ZM201.878 116.577C201.878 116.609 201.852 116.634 201.821 116.634C201.79 116.634 201.764 116.609 201.764 116.577C201.764 116.546 201.79 116.52 201.821 116.52C201.852 116.52 201.878 116.546 201.878 116.577ZM188.84 65.072H188.675L188.807 65.611L189.114 66.8685L189.246 67.4075L189.26 67.4673H189.279H189.937H189.955L189.97 67.4075L190.409 65.611L190.541 65.072H190.376H188.84ZM189.151 66.2697H190.065L190.212 65.6709H189.004L189.151 66.2697ZM194.273 65.072H194.437H195.974H196.138L196.007 65.611L195.568 67.4075L195.553 67.4673H195.535H194.876H194.858L194.843 67.4075L194.712 66.8685L194.404 65.611L194.273 65.072ZM195.663 66.2697H194.748L194.602 65.6709H195.809L195.663 66.2697ZM200.034 65.072H199.869L200.001 65.611L200.308 66.8685L200.44 67.4075L200.455 67.4673H200.473H201.132H201.15L201.164 67.4075L201.603 65.611L201.735 65.072H201.571H200.034ZM200.345 66.2697H201.26L201.406 65.6709H200.199L200.345 66.2697ZM205.467 65.072H205.632H207.168H207.333L207.201 65.611L206.894 66.8684L206.762 67.4074L206.747 67.4673H206.729H206.071H206.052L206.038 67.4074L205.599 65.611L205.467 65.072ZM206.857 66.2697H205.942L205.796 65.6708H207.003L206.857 66.2697ZM192.915 70.1631H191.727V71.3511H192.915V70.1631ZM187.317 70.1631H186.13V71.3511H187.317V70.1631ZM197.324 70.1631H198.512V71.3511H197.324V70.1631ZM204.11 70.1631H202.922V71.3511H204.11V70.1631ZM208.52 70.1631H209.707V71.3511H208.52V70.1631ZM191.727 75.5937H192.915V76.7817H191.727V75.5937ZM186.13 75.5937H187.317V76.7817H186.13V75.5937ZM198.512 75.5937H197.324V76.7817H198.512V75.5937ZM202.922 75.5937H204.11V76.7817H202.922V75.5937ZM209.707 75.5937H208.52V76.7817H209.707V75.5937ZM192.915 81.0242H191.727V82.2122H192.915V81.0242ZM187.317 81.0242H186.13V82.2122H187.317V81.0242ZM197.324 81.0242H198.512V82.2122H197.324V81.0242ZM204.11 81.0242H202.922V82.2122H204.11V81.0242ZM208.52 81.0242H209.707V82.2122H208.52V81.0242ZM191.727 86.4548H192.915V87.6427H191.727V86.4548ZM186.13 86.4548H187.317V87.6427H186.13V86.4548ZM198.512 86.4548H197.324V87.6427H198.512V86.4548ZM202.922 86.4548H204.11V87.6427H202.922V86.4548ZM209.707 86.4548H208.52V87.6427H209.707V86.4548ZM192.915 91.8854H191.727V93.0733H192.915V91.8854ZM187.317 91.8854H186.13V93.0733H187.317V91.8854ZM197.324 91.8854H198.512V93.0733H197.324V91.8854ZM204.11 91.8854H202.922V93.0733H204.11V91.8854ZM208.52 91.8854H209.707V93.0733H208.52V91.8854ZM191.727 97.3159H192.915V98.5038H191.727V97.3159ZM186.13 97.3159H187.317V98.5038H186.13V97.3159ZM198.512 97.3159H197.324V98.5038H198.512V97.3159ZM202.922 97.3159H204.11V98.5038H202.922V97.3159ZM209.707 97.3159H208.52V98.5038H209.707V97.3159ZM192.915 102.746H191.727V103.934H192.915V102.746ZM187.317 102.746H186.13V103.934H187.317V102.746ZM197.324 102.746H198.512V103.934H197.324V102.746ZM204.11 102.746H202.922V103.934H204.11V102.746ZM208.52 102.746H209.707V103.934H208.52V102.746ZM186.13 108.177H187.317V109.365H186.13V108.177ZM191.727 108.177H192.915V109.365H191.727V108.177ZM198.512 108.177H197.324V109.365H198.512V108.177ZM202.922 108.177H204.11V109.365H202.922V108.177ZM209.707 108.177H208.52V109.365H209.707V108.177ZM198.682 61.1688H197.325V62.5264H198.682V61.1688ZM184.773 58.7081C184.773 58.0052 184.204 57.4353 183.501 57.4353C182.799 57.4353 182.229 58.0052 182.229 58.7081H182.059C182.059 57.9114 182.705 57.2656 183.501 57.2656C184.297 57.2656 184.943 57.9114 184.943 58.7081H184.773ZM195.036 57.4353C195.738 57.4353 196.308 58.0052 196.308 58.7081H196.477H196.477H196.646C196.646 58.0052 197.216 57.4353 197.918 57.4353C198.621 57.4353 199.191 58.0052 199.191 58.7081H199.36C199.36 57.9114 198.715 57.2656 197.918 57.2656C197.132 57.2656 196.493 57.8955 196.477 58.6785C196.461 57.8955 195.822 57.2656 195.036 57.2656C194.239 57.2656 193.594 57.9114 193.594 58.7081H193.763C193.763 58.0052 194.333 57.4353 195.036 57.4353ZM207.841 58.7081C207.841 58.0052 207.272 57.4353 206.569 57.4353C205.867 57.4353 205.297 58.0052 205.297 58.7081H205.128C205.128 57.9114 205.773 57.2656 206.569 57.2656C207.356 57.2656 207.995 57.8955 208.011 58.6786C208.027 57.8955 208.666 57.2656 209.452 57.2656C210.248 57.2656 210.894 57.9114 210.894 58.7081H210.724C210.724 58.0052 210.155 57.4353 209.452 57.4353C208.75 57.4353 208.18 58.0052 208.18 58.7081H208.011H208.01H207.841ZM186.385 57.4353C187.087 57.4353 187.657 58.0052 187.657 58.7081H187.826H187.827H187.996C187.996 58.0052 188.565 57.4353 189.268 57.4353C189.97 57.4353 190.54 58.0052 190.54 58.7081H190.709C190.709 57.9114 190.064 57.2656 189.268 57.2656C188.481 57.2656 187.842 57.8955 187.826 58.6785C187.81 57.8955 187.171 57.2656 186.385 57.2656C185.589 57.2656 184.943 57.9114 184.943 58.7081H185.113C185.113 58.0052 185.682 57.4353 186.385 57.4353ZM200.802 57.4353C201.505 57.4353 202.074 58.0052 202.074 58.7081H202.244C202.244 57.9114 201.598 57.2656 200.802 57.2656C200.006 57.2656 199.36 57.9114 199.36 58.7081H199.53C199.53 58.0052 200.1 57.4353 200.802 57.4353ZM213.608 58.7081C213.608 58.0052 213.038 57.4353 212.336 57.4353C211.633 57.4353 211.064 58.0052 211.064 58.7081H210.894C210.894 57.9114 211.54 57.2656 212.336 57.2656C213.132 57.2656 213.778 57.9114 213.778 58.7081H213.608ZM192.152 57.4353C192.855 57.4353 193.424 58.0052 193.424 58.7081H193.594C193.594 57.9114 192.948 57.2656 192.152 57.2656C191.356 57.2656 190.71 57.9114 190.71 58.7081H190.88C190.88 58.0052 191.449 57.4353 192.152 57.4353ZM204.958 58.7081C204.958 58.0052 204.388 57.4353 203.686 57.4353C202.983 57.4353 202.414 58.0052 202.414 58.7081H202.244C202.244 57.9114 202.889 57.2656 203.686 57.2656C204.482 57.2656 205.128 57.9114 205.128 58.7081H204.958ZM181.804 56.7285C181.836 56.7285 181.861 56.7031 181.861 56.6717C181.861 56.6403 181.836 56.6149 181.804 56.6149C181.773 56.6149 181.748 56.6403 181.748 56.6717C181.748 56.7031 181.773 56.7285 181.804 56.7285ZM181.804 57.096C182.039 57.096 182.228 56.906 182.228 56.6717C182.228 56.4374 182.039 56.2474 181.804 56.2474C181.57 56.2474 181.38 56.4374 181.38 56.6717C181.38 56.906 181.57 57.096 181.804 57.096ZM183.557 56.6717C183.557 56.7031 183.531 56.7285 183.5 56.7285C183.469 56.7285 183.443 56.7031 183.443 56.6717C183.443 56.6403 183.469 56.6149 183.5 56.6149C183.531 56.6149 183.557 56.6403 183.557 56.6717ZM183.924 56.6717C183.924 56.906 183.734 57.096 183.5 57.096C183.273 57.096 183.087 56.9168 183.077 56.6918C183.066 56.9168 182.88 57.096 182.653 57.096C182.419 57.096 182.229 56.906 182.229 56.6717C182.229 56.4374 182.419 56.2474 182.653 56.2474C182.88 56.2474 183.066 56.4266 183.077 56.6516C183.087 56.4266 183.273 56.2474 183.5 56.2474C183.734 56.2474 183.924 56.4374 183.924 56.6717ZM192.038 56.6717C192.038 56.7031 192.013 56.7285 191.982 56.7285C191.95 56.7285 191.925 56.7031 191.925 56.6717C191.925 56.6403 191.95 56.6149 191.982 56.6149C192.013 56.6149 192.038 56.6403 192.038 56.6717ZM192.406 56.6814C192.4 56.9112 192.213 57.096 191.982 57.096C191.747 57.096 191.558 56.906 191.558 56.6717C191.558 56.4374 191.747 56.2474 191.982 56.2474C192.213 56.2474 192.4 56.4322 192.406 56.6621C192.411 56.4322 192.599 56.2474 192.83 56.2474C193.06 56.2474 193.248 56.4322 193.253 56.6621C193.259 56.4322 193.446 56.2474 193.677 56.2474C193.912 56.2474 194.101 56.4374 194.101 56.6717C194.101 56.906 193.912 57.096 193.677 57.096C193.446 57.096 193.259 56.9112 193.253 56.6814C193.248 56.9112 193.06 57.096 192.83 57.096C192.599 57.096 192.411 56.9112 192.406 56.6814ZM200.462 56.7285C200.494 56.7285 200.519 56.7031 200.519 56.6717C200.519 56.6403 200.494 56.6149 200.462 56.6149C200.431 56.6149 200.406 56.6403 200.406 56.6717C200.406 56.7031 200.431 56.7285 200.462 56.7285ZM200.462 57.096C200.693 57.096 200.881 56.9112 200.886 56.6814C200.892 56.9112 201.079 57.096 201.31 57.096C201.541 57.096 201.729 56.9112 201.734 56.6813C201.739 56.9112 201.927 57.096 202.158 57.096C202.392 57.096 202.582 56.906 202.582 56.6717C202.582 56.4374 202.392 56.2474 202.158 56.2474C201.927 56.2474 201.739 56.4322 201.734 56.6621C201.729 56.4322 201.541 56.2474 201.31 56.2474C201.079 56.2474 200.892 56.4322 200.886 56.6621C200.881 56.4322 200.693 56.2474 200.462 56.2474C200.228 56.2474 200.038 56.4374 200.038 56.6717C200.038 56.906 200.228 57.096 200.462 57.096ZM209 56.6717C209 56.7031 208.975 56.7285 208.943 56.7285C208.912 56.7285 208.887 56.7031 208.887 56.6717C208.887 56.6403 208.912 56.6149 208.943 56.6149C208.975 56.6149 209 56.6403 209 56.6717ZM209.367 56.6813C209.362 56.9112 209.174 57.096 208.943 57.096C208.709 57.096 208.519 56.906 208.519 56.6717C208.519 56.4374 208.709 56.2474 208.943 56.2474C209.174 56.2474 209.362 56.4322 209.367 56.6621C209.372 56.4322 209.56 56.2474 209.791 56.2474C210.025 56.2474 210.215 56.4374 210.215 56.6717C210.215 56.906 210.025 57.096 209.791 57.096C209.56 57.096 209.372 56.9112 209.367 56.6813ZM186.045 56.7285C186.076 56.7285 186.102 56.7031 186.102 56.6717C186.102 56.6403 186.076 56.6149 186.045 56.6149C186.014 56.6149 185.988 56.6403 185.988 56.6717C185.988 56.7031 186.014 56.7285 186.045 56.7285ZM186.045 57.096C186.276 57.096 186.464 56.9112 186.469 56.6814C186.474 56.9112 186.662 57.096 186.893 57.096C187.124 57.096 187.312 56.9112 187.317 56.6814C187.322 56.9112 187.51 57.096 187.741 57.096C187.975 57.096 188.165 56.906 188.165 56.6717C188.165 56.4374 187.975 56.2474 187.741 56.2474C187.51 56.2474 187.322 56.4322 187.317 56.6621C187.312 56.4322 187.124 56.2474 186.893 56.2474C186.662 56.2474 186.474 56.4322 186.469 56.6621C186.464 56.4322 186.276 56.2474 186.045 56.2474C185.811 56.2474 185.621 56.4374 185.621 56.6717C185.621 56.906 185.811 57.096 186.045 57.096ZM194.583 56.6717C194.583 56.7031 194.557 56.7285 194.526 56.7285C194.495 56.7285 194.469 56.7031 194.469 56.6717C194.469 56.6403 194.495 56.6149 194.526 56.6149C194.557 56.6149 194.583 56.6403 194.583 56.6717ZM194.95 56.6813C194.945 56.9112 194.757 57.096 194.526 57.096C194.292 57.096 194.102 56.906 194.102 56.6717C194.102 56.4374 194.292 56.2474 194.526 56.2474C194.757 56.2474 194.945 56.4322 194.95 56.6621C194.955 56.4322 195.143 56.2474 195.374 56.2474C195.605 56.2474 195.793 56.4322 195.798 56.6621C195.803 56.4322 195.991 56.2474 196.222 56.2474C196.453 56.2474 196.641 56.4322 196.646 56.6621C196.651 56.4322 196.839 56.2474 197.07 56.2474C197.304 56.2474 197.494 56.4374 197.494 56.6717C197.494 56.906 197.304 57.096 197.07 57.096C196.839 57.096 196.651 56.9112 196.646 56.6813C196.641 56.9112 196.453 57.096 196.222 57.096C195.991 57.096 195.803 56.9112 195.798 56.6814C195.793 56.9112 195.605 57.096 195.374 57.096C195.143 57.096 194.955 56.9112 194.95 56.6813ZM203.007 56.7285C203.038 56.7285 203.064 56.7031 203.064 56.6717C203.064 56.6403 203.038 56.6149 203.007 56.6149C202.975 56.6149 202.95 56.6403 202.95 56.6717C202.95 56.7031 202.975 56.7285 203.007 56.7285ZM203.007 57.096C203.238 57.096 203.426 56.9112 203.431 56.6814C203.436 56.9112 203.624 57.096 203.855 57.096C204.089 57.096 204.279 56.906 204.279 56.6717C204.279 56.4374 204.089 56.2474 203.855 56.2474C203.624 56.2474 203.436 56.4322 203.431 56.6621C203.426 56.4322 203.238 56.2474 203.007 56.2474C202.773 56.2474 202.583 56.4374 202.583 56.6717C202.583 56.906 202.773 57.096 203.007 57.096ZM211.544 56.6717C211.544 56.7031 211.518 56.7285 211.487 56.7285C211.456 56.7285 211.43 56.7031 211.43 56.6717C211.43 56.6403 211.456 56.6149 211.487 56.6149C211.518 56.6149 211.544 56.6403 211.544 56.6717ZM211.911 56.6717C211.911 56.906 211.721 57.096 211.487 57.096C211.259 57.096 211.074 56.9168 211.063 56.6918C211.053 56.9168 210.867 57.096 210.64 57.096C210.406 57.096 210.216 56.906 210.216 56.6717C210.216 56.4374 210.406 56.2474 210.64 56.2474C210.867 56.2474 211.053 56.4266 211.063 56.6516C211.074 56.4266 211.259 56.2474 211.487 56.2474C211.721 56.2474 211.911 56.4374 211.911 56.6717ZM188.589 56.7285C188.621 56.7285 188.646 56.7031 188.646 56.6717C188.646 56.6403 188.621 56.6149 188.589 56.6149C188.558 56.6149 188.533 56.6403 188.533 56.6717C188.533 56.7031 188.558 56.7285 188.589 56.7285ZM188.589 57.096C188.82 57.096 189.008 56.9112 189.013 56.6814C189.019 56.9112 189.206 57.096 189.437 57.096C189.668 57.096 189.856 56.9112 189.861 56.6814C189.866 56.9112 190.054 57.096 190.285 57.096C190.516 57.096 190.704 56.9112 190.709 56.6814C190.714 56.9112 190.902 57.096 191.133 57.096C191.367 57.096 191.557 56.906 191.557 56.6717C191.557 56.4374 191.367 56.2474 191.133 56.2474C190.902 56.2474 190.714 56.4322 190.709 56.6621C190.704 56.4322 190.516 56.2474 190.285 56.2474C190.054 56.2474 189.866 56.4322 189.861 56.6621C189.856 56.4322 189.668 56.2474 189.437 56.2474C189.206 56.2474 189.019 56.4322 189.013 56.6621C189.008 56.4322 188.82 56.2474 188.589 56.2474C188.355 56.2474 188.165 56.4374 188.165 56.6717C188.165 56.906 188.355 57.096 188.589 57.096ZM197.126 56.6717C197.126 56.7031 197.101 56.7285 197.07 56.7285C197.038 56.7285 197.013 56.7031 197.013 56.6717C197.013 56.6403 197.038 56.6149 197.07 56.6149C197.101 56.6149 197.126 56.6403 197.126 56.6717ZM205.55 56.7285C205.582 56.7285 205.607 56.7031 205.607 56.6717C205.607 56.6403 205.582 56.6149 205.55 56.6149C205.519 56.6149 205.494 56.6403 205.494 56.6717C205.494 56.7031 205.519 56.7285 205.55 56.7285ZM205.55 57.096C205.785 57.096 205.974 56.906 205.974 56.6717C205.974 56.4374 205.785 56.2474 205.55 56.2474C205.323 56.2474 205.137 56.4266 205.127 56.6516C205.116 56.4266 204.931 56.2474 204.703 56.2474C204.469 56.2474 204.279 56.4374 204.279 56.6717C204.279 56.906 204.469 57.096 204.703 57.096C204.931 57.096 205.116 56.9168 205.127 56.6918C205.137 56.9168 205.323 57.096 205.55 57.096ZM214.089 56.6717C214.089 56.7031 214.063 56.7285 214.032 56.7285C214.001 56.7285 213.975 56.7031 213.975 56.6717C213.975 56.6403 214.001 56.6149 214.032 56.6149C214.063 56.6149 214.089 56.6403 214.089 56.6717ZM214.456 56.6717C214.456 56.906 214.266 57.096 214.032 57.096C213.798 57.096 213.608 56.906 213.608 56.6717C213.608 56.4374 213.798 56.2474 214.032 56.2474C214.266 56.2474 214.456 56.4374 214.456 56.6717ZM190.342 56.6717C190.342 56.7031 190.317 56.7285 190.285 56.7285C190.254 56.7285 190.228 56.7031 190.228 56.6717C190.228 56.6403 190.254 56.6149 190.285 56.6149C190.317 56.6149 190.342 56.6403 190.342 56.6717ZM198.766 56.7285C198.797 56.7285 198.823 56.7031 198.823 56.6717C198.823 56.6403 198.797 56.6149 198.766 56.6149C198.735 56.6149 198.709 56.6403 198.709 56.6717C198.709 56.7031 198.735 56.7285 198.766 56.7285ZM199.19 56.6813C199.185 56.9112 198.997 57.096 198.766 57.096C198.535 57.096 198.347 56.9112 198.342 56.6814C198.337 56.9112 198.149 57.096 197.918 57.096C197.684 57.096 197.494 56.906 197.494 56.6717C197.494 56.4374 197.684 56.2474 197.918 56.2474C198.149 56.2474 198.337 56.4322 198.342 56.6621C198.347 56.4322 198.535 56.2474 198.766 56.2474C198.997 56.2474 199.185 56.4322 199.19 56.6621C199.195 56.4322 199.383 56.2474 199.614 56.2474C199.848 56.2474 200.038 56.4374 200.038 56.6717C200.038 56.906 199.848 57.096 199.614 57.096C199.383 57.096 199.195 56.9112 199.19 56.6813ZM207.304 56.6717C207.304 56.7031 207.278 56.7285 207.247 56.7285C207.216 56.7285 207.19 56.7031 207.19 56.6717C207.19 56.6403 207.216 56.6149 207.247 56.6149C207.278 56.6149 207.304 56.6403 207.304 56.6717ZM207.247 57.096C207.478 57.096 207.666 56.9112 207.671 56.6813C207.676 56.9112 207.864 57.096 208.095 57.096C208.329 57.096 208.519 56.906 208.519 56.6717C208.519 56.4374 208.329 56.2474 208.095 56.2474C207.864 56.2474 207.676 56.4322 207.671 56.6621C207.666 56.4322 207.478 56.2474 207.247 56.2474C207.016 56.2474 206.828 56.4322 206.823 56.662C206.818 56.4322 206.63 56.2474 206.399 56.2474C206.165 56.2474 205.975 56.4374 205.975 56.6717C205.975 56.906 206.165 57.096 206.399 57.096C206.63 57.096 206.818 56.9112 206.823 56.6814C206.828 56.9112 207.016 57.096 207.247 57.096ZM184.349 56.7285C184.38 56.7285 184.405 56.7031 184.405 56.6717C184.405 56.6403 184.38 56.6149 184.349 56.6149C184.317 56.6149 184.292 56.6403 184.292 56.6717C184.292 56.7031 184.317 56.7285 184.349 56.7285ZM184.773 56.6814C184.767 56.9112 184.58 57.096 184.349 57.096C184.114 57.096 183.925 56.906 183.925 56.6717C183.925 56.4374 184.114 56.2474 184.349 56.2474C184.58 56.2474 184.767 56.4322 184.773 56.6621C184.778 56.4322 184.966 56.2474 185.197 56.2474C185.431 56.2474 185.621 56.4374 185.621 56.6717C185.621 56.906 185.431 57.096 185.197 57.096C184.966 57.096 184.778 56.9112 184.773 56.6814ZM192.886 56.6717C192.886 56.7031 192.861 56.7285 192.83 56.7285C192.798 56.7285 192.773 56.7031 192.773 56.6717C192.773 56.6403 192.798 56.6149 192.83 56.6149C192.861 56.6149 192.886 56.6403 192.886 56.6717ZM201.31 56.7285C201.342 56.7285 201.367 56.7031 201.367 56.6717C201.367 56.6403 201.342 56.6149 201.31 56.6149C201.279 56.6149 201.254 56.6403 201.254 56.6717C201.254 56.7031 201.279 56.7285 201.31 56.7285ZM209.848 56.6717C209.848 56.7031 209.823 56.7285 209.791 56.7285C209.76 56.7285 209.734 56.7031 209.734 56.6717C209.734 56.6403 209.76 56.6149 209.791 56.6149C209.823 56.6149 209.848 56.6403 209.848 56.6717ZM186.893 56.7285C186.924 56.7285 186.95 56.7031 186.95 56.6717C186.95 56.6403 186.924 56.6149 186.893 56.6149C186.862 56.6149 186.836 56.6403 186.836 56.6717C186.836 56.7031 186.862 56.7285 186.893 56.7285ZM195.431 56.6717C195.431 56.7031 195.405 56.7285 195.374 56.7285C195.342 56.7285 195.317 56.7031 195.317 56.6717C195.317 56.6403 195.342 56.6149 195.374 56.6149C195.405 56.6149 195.431 56.6403 195.431 56.6717ZM203.855 56.7285C203.886 56.7285 203.911 56.7031 203.911 56.6717C203.911 56.6403 203.886 56.6149 203.855 56.6149C203.823 56.6149 203.798 56.6403 203.798 56.6717C203.798 56.7031 203.823 56.7285 203.855 56.7285ZM212.392 56.6717C212.392 56.7031 212.367 56.7285 212.336 56.7285C212.304 56.7285 212.279 56.7031 212.279 56.6717C212.279 56.6403 212.304 56.6149 212.336 56.6149C212.367 56.6149 212.392 56.6403 212.392 56.6717ZM212.336 57.096C212.566 57.096 212.754 56.9112 212.759 56.6814C212.765 56.9112 212.952 57.096 213.183 57.096C213.418 57.096 213.607 56.906 213.607 56.6717C213.607 56.4374 213.418 56.2474 213.183 56.2474C212.952 56.2474 212.765 56.4322 212.759 56.662C212.754 56.4322 212.566 56.2474 212.336 56.2474C212.101 56.2474 211.911 56.4374 211.911 56.6717C211.911 56.906 212.101 57.096 212.336 57.096ZM189.437 56.7285C189.469 56.7285 189.494 56.7031 189.494 56.6717C189.494 56.6403 189.469 56.6149 189.437 56.6149C189.406 56.6149 189.381 56.6403 189.381 56.6717C189.381 56.7031 189.406 56.7285 189.437 56.7285ZM197.975 56.6717C197.975 56.7031 197.95 56.7285 197.918 56.7285C197.887 56.7285 197.861 56.7031 197.861 56.6717C197.861 56.6403 197.887 56.6149 197.918 56.6149C197.95 56.6149 197.975 56.6403 197.975 56.6717ZM206.399 56.7285C206.43 56.7285 206.456 56.7031 206.456 56.6717C206.456 56.6403 206.43 56.6149 206.399 56.6149C206.368 56.6149 206.342 56.6403 206.342 56.6717C206.342 56.7031 206.368 56.7285 206.399 56.7285ZM182.71 56.6717C182.71 56.7031 182.684 56.7285 182.653 56.7285C182.622 56.7285 182.596 56.7031 182.596 56.6717C182.596 56.6403 182.622 56.6149 182.653 56.6149C182.684 56.6149 182.71 56.6403 182.71 56.6717ZM191.133 56.7285C191.164 56.7285 191.19 56.7031 191.19 56.6717C191.19 56.6403 191.164 56.6149 191.133 56.6149C191.102 56.6149 191.076 56.6403 191.076 56.6717C191.076 56.7031 191.102 56.7285 191.133 56.7285ZM199.671 56.6717C199.671 56.7031 199.645 56.7285 199.614 56.7285C199.583 56.7285 199.557 56.7031 199.557 56.6717C199.557 56.6403 199.583 56.6149 199.614 56.6149C199.645 56.6149 199.671 56.6403 199.671 56.6717ZM208.095 56.7285C208.126 56.7285 208.152 56.7031 208.152 56.6717C208.152 56.6403 208.126 56.6149 208.095 56.6149C208.063 56.6149 208.038 56.6403 208.038 56.6717C208.038 56.7031 208.063 56.7285 208.095 56.7285ZM185.253 56.6717C185.253 56.7031 185.228 56.7285 185.197 56.7285C185.165 56.7285 185.14 56.7031 185.14 56.6717C185.14 56.6403 185.165 56.6149 185.197 56.6149C185.228 56.6149 185.253 56.6403 185.253 56.6717ZM193.677 56.7285C193.709 56.7285 193.734 56.7031 193.734 56.6717C193.734 56.6403 193.709 56.6149 193.677 56.6149C193.646 56.6149 193.621 56.6403 193.621 56.6717C193.621 56.7031 193.646 56.7285 193.677 56.7285ZM202.215 56.6717C202.215 56.7031 202.19 56.7285 202.158 56.7285C202.127 56.7285 202.101 56.7031 202.101 56.6717C202.101 56.6403 202.127 56.6149 202.158 56.6149C202.19 56.6149 202.215 56.6403 202.215 56.6717ZM210.64 56.7285C210.671 56.7285 210.697 56.7031 210.697 56.6717C210.697 56.6403 210.671 56.6149 210.64 56.6149C210.608 56.6149 210.583 56.6403 210.583 56.6717C210.583 56.7031 210.608 56.7285 210.64 56.7285ZM187.798 56.6717C187.798 56.7031 187.772 56.7285 187.741 56.7285C187.71 56.7285 187.684 56.7031 187.684 56.6717C187.684 56.6403 187.71 56.6149 187.741 56.6149C187.772 56.6149 187.798 56.6403 187.798 56.6717ZM196.222 56.7285C196.253 56.7285 196.278 56.7031 196.278 56.6717C196.278 56.6403 196.253 56.6149 196.222 56.6149C196.19 56.6149 196.165 56.6403 196.165 56.6717C196.165 56.7031 196.19 56.7285 196.222 56.7285ZM204.76 56.6717C204.76 56.7031 204.735 56.7285 204.703 56.7285C204.672 56.7285 204.646 56.7031 204.646 56.6717C204.646 56.6403 204.672 56.6149 204.703 56.6149C204.735 56.6149 204.76 56.6403 204.76 56.6717ZM213.183 56.7285C213.215 56.7285 213.24 56.7031 213.24 56.6717C213.24 56.6403 213.215 56.6149 213.183 56.6149C213.152 56.6149 213.127 56.6403 213.127 56.6717C213.127 56.7031 213.152 56.7285 213.183 56.7285ZM191.134 30.4524C191.836 30.4524 192.406 31.0222 192.406 31.7251H192.575C192.575 30.9285 191.93 30.2827 191.134 30.2827C190.337 30.2827 189.692 30.9285 189.692 31.7251H189.861C189.861 31.0222 190.431 30.4524 191.134 30.4524ZM197.834 31.7251C197.834 31.0222 197.264 30.4524 196.561 30.4524C195.859 30.4524 195.289 31.0222 195.289 31.7251H195.12C195.12 30.9285 195.765 30.2827 196.561 30.2827C197.348 30.2827 197.987 30.9126 198.003 31.6956C198.019 30.9126 198.658 30.2827 199.444 30.2827C200.241 30.2827 200.886 30.9285 200.886 31.7251H200.717C200.717 31.0222 200.147 30.4524 199.444 30.4524C198.742 30.4524 198.172 31.0222 198.172 31.7251H198.003H198.003H197.834ZM206.144 31.7251C206.144 31.0222 205.575 30.4524 204.872 30.4524C204.17 30.4524 203.6 31.0222 203.6 31.7251H203.431C203.431 30.9285 204.076 30.2827 204.872 30.2827C205.669 30.2827 206.314 30.9285 206.314 31.7251H206.144ZM194.134 33.5964H193.22L193.073 33.382H194.281L194.134 33.5964ZM193.403 49.2756H193.512V46.4046H193.403V49.2756ZM193.403 46.2209H193.512V42.1621H193.403V46.2209ZM193.622 49.2756V46.4046H193.732V49.2756H193.622ZM193.622 46.2209H193.732V42.1621H193.622V46.2209ZM193.842 49.2756V46.4046H193.951V49.2756H193.842ZM193.842 46.2209H193.951V42.1621H193.842V46.2209ZM194.061 42.1621V46.2209H201.775V42.1621H194.061ZM201.775 46.4046H194.061V49.2756H201.775V46.4046ZM201.884 49.2756V46.4046H201.994V49.2756H201.884ZM202.104 49.2756V46.4046H202.214V49.2756H202.104ZM202.104 46.2209H202.214V42.1621H202.104V46.2209ZM202.323 49.2756V46.4046H202.433V49.2756H202.323ZM202.323 42.1621V46.2209H202.433V42.1621H202.323ZM201.884 46.2209H201.994V42.1621H201.884V46.2209ZM193.403 41.9783V38.2588H193.512V41.9783H193.403ZM193.732 41.9783H193.622V38.2588H193.732V41.9783ZM193.951 41.9783H193.842V38.2588H193.951V41.9783ZM194.061 41.9783V38.2588H201.775V41.9783H194.061ZM202.214 41.9783H202.104V38.2588H202.214V41.9783ZM202.433 38.2588V41.9783H202.323V38.2588H202.433ZM201.994 41.9783H201.884V38.2588H201.994V41.9783ZM193.403 38.0751H193.512V34.3556H193.403V38.0751ZM193.622 38.0751H193.732V34.3556H193.622V38.0751ZM193.842 38.0751H193.951V34.3556H193.842V38.0751ZM194.061 34.3556V38.0751H201.775V34.3556H194.061ZM202.104 38.0751H202.214V34.3556H202.104V38.0751ZM202.323 34.3556V38.0751H202.433V34.3556H202.323ZM201.884 38.0751H201.994V34.3556H201.884V38.0751ZM202.616 33.5964H201.702L201.555 33.382H202.762L202.616 33.5964ZM191.048 35.7132H190.03V36.7314H191.048V35.7132ZM198.512 35.7132H197.494V36.7314H198.512V35.7132ZM204.956 35.7132H205.974V36.7314H204.956V35.7132ZM198.512 39.786H197.494V40.8043H198.512V39.786ZM190.03 39.786H191.048V40.8043H190.03V39.786ZM205.974 39.786H204.956V40.8043H205.974V39.786ZM197.494 43.859H198.512V44.8772H197.494V43.859ZM191.048 43.859H190.03V44.8772H191.048V43.859ZM204.956 43.859H205.974V44.8772H204.956V43.859ZM188.249 29.5758C188.28 29.5758 188.306 29.5504 188.306 29.519C188.306 29.4877 188.28 29.4622 188.249 29.4622C188.217 29.4622 188.192 29.4877 188.192 29.519C188.192 29.5504 188.217 29.5758 188.249 29.5758ZM196.56 29.5758C196.591 29.5758 196.616 29.5504 196.616 29.519C196.616 29.4877 196.591 29.4622 196.56 29.4622C196.528 29.4622 196.503 29.4877 196.503 29.519C196.503 29.5504 196.528 29.5758 196.56 29.5758ZM204.871 29.5758C204.903 29.5758 204.928 29.5504 204.928 29.519C204.928 29.4877 204.903 29.4622 204.871 29.4622C204.84 29.4622 204.814 29.4877 204.814 29.519C204.814 29.5504 204.84 29.5758 204.871 29.5758ZM199.443 29.5758C199.475 29.5758 199.5 29.5504 199.5 29.519C199.5 29.4877 199.475 29.4622 199.443 29.4622C199.412 29.4622 199.387 29.4877 199.387 29.519C199.387 29.5504 199.412 29.5758 199.443 29.5758ZM191.132 29.5758C191.164 29.5758 191.189 29.5504 191.189 29.519C191.189 29.4877 191.164 29.4622 191.132 29.4622C191.101 29.4622 191.076 29.4877 191.076 29.519C191.076 29.5504 191.101 29.5758 191.132 29.5758ZM207.755 29.5758C207.786 29.5758 207.812 29.5504 207.812 29.519C207.812 29.4877 207.786 29.4622 207.755 29.4622C207.723 29.4622 207.698 29.4877 207.698 29.519C207.698 29.5504 207.723 29.5758 207.755 29.5758ZM188.673 29.519C188.673 29.7533 188.483 29.9433 188.249 29.9433C188.015 29.9433 187.825 29.7533 187.825 29.519C187.825 29.2847 188.015 29.0948 188.249 29.0948C188.483 29.0948 188.673 29.2847 188.673 29.519ZM196.984 29.519C196.984 29.7533 196.794 29.9433 196.56 29.9433C196.325 29.9433 196.136 29.7533 196.136 29.519C196.136 29.2847 196.325 29.0948 196.56 29.0948C196.794 29.0948 196.984 29.2847 196.984 29.519ZM204.871 29.9433C205.105 29.9433 205.295 29.7533 205.295 29.519C205.295 29.2847 205.105 29.0948 204.871 29.0948C204.637 29.0948 204.447 29.2847 204.447 29.519C204.447 29.7533 204.637 29.9433 204.871 29.9433ZM199.867 29.519C199.867 29.7533 199.677 29.9433 199.443 29.9433C199.209 29.9433 199.019 29.7533 199.019 29.519C199.019 29.2847 199.209 29.0948 199.443 29.0948C199.677 29.0948 199.867 29.2847 199.867 29.519ZM191.132 29.9433C191.367 29.9433 191.557 29.7533 191.557 29.519C191.557 29.2847 191.367 29.0948 191.132 29.0948C190.898 29.0948 190.708 29.2847 190.708 29.519C190.708 29.7533 190.898 29.9433 191.132 29.9433ZM208.179 29.519C208.179 29.7533 207.989 29.9433 207.755 29.9433C207.521 29.9433 207.331 29.7533 207.331 29.519C207.331 29.2847 207.521 29.0948 207.755 29.0948C207.989 29.0948 208.179 29.2847 208.179 29.519ZM187.966 25.9553C187.966 25.9867 187.94 26.0121 187.909 26.0121C187.878 26.0121 187.852 25.9867 187.852 25.9553C187.852 25.9239 187.878 25.8985 187.909 25.8985C187.94 25.8985 187.966 25.9239 187.966 25.9553ZM188.814 25.9553C188.814 25.9867 188.788 26.0121 188.757 26.0121C188.726 26.0121 188.7 25.9867 188.7 25.9553C188.7 25.9239 188.726 25.8985 188.757 25.8985C188.788 25.8985 188.814 25.9239 188.814 25.9553ZM189.605 26.0121C189.636 26.0121 189.662 25.9867 189.662 25.9553C189.662 25.9239 189.636 25.8985 189.605 25.8985C189.574 25.8985 189.548 25.9239 189.548 25.9553C189.548 25.9867 189.574 26.0121 189.605 26.0121ZM190.51 25.9553C190.51 25.9867 190.485 26.0121 190.453 26.0121C190.422 26.0121 190.397 25.9867 190.397 25.9553C190.397 25.9239 190.422 25.8985 190.453 25.8985C190.485 25.8985 190.51 25.9239 190.51 25.9553ZM191.301 26.0121C191.333 26.0121 191.358 25.9867 191.358 25.9553C191.358 25.9239 191.333 25.8985 191.301 25.8985C191.27 25.8985 191.245 25.9239 191.245 25.9553C191.245 25.9867 191.27 26.0121 191.301 26.0121ZM192.15 26.0122C192.181 26.0122 192.207 25.9867 192.207 25.9554C192.207 25.924 192.181 25.8986 192.15 25.8986C192.119 25.8986 192.093 25.924 192.093 25.9554C192.093 25.9867 192.119 26.0122 192.15 26.0122ZM192.998 26.0122C193.029 26.0122 193.055 25.9868 193.055 25.9554C193.055 25.924 193.029 25.8986 192.998 25.8986C192.967 25.8986 192.941 25.924 192.941 25.9554C192.941 25.9868 192.967 26.0122 192.998 26.0122ZM193.903 25.9554C193.903 25.9868 193.877 26.0122 193.846 26.0122C193.814 26.0122 193.789 25.9868 193.789 25.9554C193.789 25.924 193.814 25.8986 193.846 25.8986C193.877 25.8986 193.903 25.924 193.903 25.9554ZM194.694 26.0122C194.726 26.0122 194.751 25.9868 194.751 25.9554C194.751 25.924 194.726 25.8986 194.694 25.8986C194.663 25.8986 194.638 25.924 194.638 25.9554C194.638 25.9868 194.663 26.0122 194.694 26.0122ZM195.599 25.9554C195.599 25.9868 195.574 26.0122 195.542 26.0122C195.511 26.0122 195.485 25.9868 195.485 25.9554C195.485 25.924 195.511 25.8986 195.542 25.8986C195.574 25.8986 195.599 25.924 195.599 25.9554ZM196.447 25.9554C196.447 25.9868 196.422 26.0122 196.39 26.0122C196.359 26.0122 196.333 25.9868 196.333 25.9554C196.333 25.924 196.359 25.8986 196.39 25.8986C196.422 25.8986 196.447 25.924 196.447 25.9554ZM197.295 25.9554C197.295 25.9868 197.269 26.0122 197.238 26.0122C197.207 26.0122 197.181 25.9868 197.181 25.9554C197.181 25.924 197.207 25.8986 197.238 25.8986C197.269 25.8986 197.295 25.924 197.295 25.9554ZM198.086 26.0122C198.117 26.0122 198.143 25.9868 198.143 25.9554C198.143 25.924 198.117 25.8986 198.086 25.8986C198.055 25.8986 198.029 25.924 198.029 25.9554C198.029 25.9868 198.055 26.0122 198.086 26.0122ZM198.991 25.9554C198.991 25.9868 198.966 26.0122 198.935 26.0122C198.903 26.0122 198.878 25.9868 198.878 25.9554C198.878 25.924 198.903 25.8986 198.935 25.8986C198.966 25.8986 198.991 25.924 198.991 25.9554ZM199.782 26.0122C199.814 26.0122 199.839 25.9868 199.839 25.9554C199.839 25.924 199.814 25.8986 199.782 25.8986C199.751 25.8986 199.726 25.924 199.726 25.9554C199.726 25.9868 199.751 26.0122 199.782 26.0122ZM201.478 26.0122C201.51 26.0122 201.535 25.9868 201.535 25.9554C201.535 25.924 201.51 25.8986 201.478 25.8986C201.447 25.8986 201.422 25.924 201.422 25.9554C201.422 25.9868 201.447 26.0122 201.478 26.0122ZM202.383 25.9554C202.383 25.9868 202.358 26.0122 202.326 26.0122C202.295 26.0122 202.269 25.9868 202.269 25.9554C202.269 25.924 202.295 25.8986 202.326 25.8986C202.358 25.8986 202.383 25.924 202.383 25.9554ZM203.175 26.0122C203.206 26.0122 203.232 25.9868 203.232 25.9554C203.232 25.924 203.206 25.8986 203.175 25.8986C203.143 25.8986 203.118 25.924 203.118 25.9554C203.118 25.9868 203.143 26.0122 203.175 26.0122ZM200.63 26.0122C200.662 26.0122 200.687 25.9868 200.687 25.9554C200.687 25.924 200.662 25.8986 200.63 25.8986C200.599 25.8986 200.574 25.924 200.574 25.9554C200.574 25.9868 200.599 26.0122 200.63 26.0122ZM204.079 25.9554C204.079 25.9868 204.054 26.0122 204.023 26.0122C203.991 26.0122 203.966 25.9868 203.966 25.9554C203.966 25.924 203.991 25.8986 204.023 25.8986C204.054 25.8986 204.079 25.924 204.079 25.9554ZM204.928 25.9554C204.928 25.9868 204.903 26.0122 204.871 26.0122C204.84 26.0122 204.815 25.9868 204.815 25.9554C204.815 25.924 204.84 25.8986 204.871 25.8986C204.903 25.8986 204.928 25.924 204.928 25.9554ZM205.776 25.9554C205.776 25.9868 205.751 26.0122 205.719 26.0122C205.688 26.0122 205.662 25.9868 205.662 25.9554C205.662 25.924 205.688 25.8986 205.719 25.8986C205.751 25.8986 205.776 25.924 205.776 25.9554ZM206.568 26.0122C206.599 26.0122 206.625 25.9868 206.625 25.9554C206.625 25.924 206.599 25.8986 206.568 25.8986C206.536 25.8986 206.511 25.924 206.511 25.9554C206.511 25.9868 206.536 26.0122 206.568 26.0122ZM207.472 25.9554C207.472 25.9868 207.447 26.0122 207.416 26.0122C207.384 26.0122 207.359 25.9868 207.359 25.9554C207.359 25.924 207.384 25.8986 207.416 25.8986C207.447 25.8986 207.472 25.924 207.472 25.9554ZM208.263 26.0122C208.295 26.0122 208.32 25.9868 208.32 25.9554C208.32 25.924 208.295 25.8986 208.263 25.8986C208.232 25.8986 208.207 25.924 208.207 25.9554C208.207 25.9868 208.232 26.0122 208.263 26.0122ZM198.326 22.3915C198.326 22.618 198.143 22.8017 197.916 22.8017C197.69 22.8017 197.506 22.618 197.506 22.3915C197.506 22.1649 197.69 21.9812 197.916 21.9812C198.143 21.9812 198.326 22.1649 198.326 22.3915ZM198.51 22.3915C198.51 22.7195 198.244 22.9854 197.916 22.9854C197.589 22.9854 197.323 22.7195 197.323 22.3915C197.323 22.0634 197.589 21.7975 197.916 21.7975C198.244 21.7975 198.51 22.0634 198.51 22.3915ZM197.928 22.3915C197.928 22.3977 197.922 22.4028 197.916 22.4028C197.91 22.4028 197.905 22.3977 197.905 22.3915C197.905 22.3852 197.91 22.3801 197.916 22.3801C197.922 22.3801 197.928 22.3852 197.928 22.3915ZM198.001 22.3915C198.001 22.4383 197.963 22.4763 197.916 22.4763C197.869 22.4763 197.831 22.4383 197.831 22.3915C197.831 22.3446 197.869 22.3066 197.916 22.3066C197.963 22.3066 198.001 22.3446 198.001 22.3915ZM193.76 21.7974H193.59V22.6459H193.76V21.7974ZM202.241 21.7974H202.411V22.6459H202.241V21.7974ZM198.724 20.2276L197.916 19.5913L197.108 20.2276H198.724ZM197.144 15.0092L199.163 15.0981L199.98 16.8867L198.827 18.5214L196.798 18.3934L195.966 16.4554L197.144 15.0092ZM198.624 16.0402L197.161 16.6698L198.412 17.6224L198.624 16.0402ZM198.455 15.7247L197.286 15.2289L197.04 16.2714L198.455 15.7247ZM198.158 17.862L196.888 16.9683L196.919 18.1794L198.158 17.862ZM199.777 16.8828L198.911 16.0173L198.683 17.6816L199.777 16.8828ZM198.456 18.0567L197.385 18.3326L198.645 18.4121L198.456 18.0567ZM199.608 17.2754L198.67 17.9637L198.856 18.3226L199.608 17.2754ZM199.164 15.348L198.982 15.7164L199.66 16.3954L199.164 15.348ZM198.937 15.1717L197.746 15.1241L198.729 15.5473L198.937 15.1717ZM196.97 15.342L196.136 16.3795L196.694 16.4959L196.97 15.342ZM196.66 16.6994L196.1 16.5825L196.685 17.9394L196.66 16.6994ZM222.765 125.147H173.237L170.692 130.408H225.309L222.765 125.147Z" fill="#9013FE"/>
<path fill-rule="evenodd" clip-rule="evenodd" d="M33.3374 55.9629L46.5446 56.5445L51.8917 68.249L44.3479 78.9462L31.0689 78.1085L25.625 65.4266L33.3374 55.9629ZM43.02 62.7097L33.4483 66.8297L41.6315 73.063L43.02 62.7097ZM41.9119 60.6452L34.2625 57.4004L32.6556 64.2227L41.9119 60.6452ZM39.973 74.6314L31.6596 68.7831L31.8607 76.7079L39.973 74.6314ZM50.5638 68.2232L44.8986 62.5598L43.4034 73.4503L50.5638 68.2232ZM41.9221 75.9052L34.9109 77.7106L43.1561 78.2307L41.9221 75.9052ZM49.4567 70.7927L43.3193 75.2969L44.5389 77.6449L49.4567 70.7927ZM46.5537 58.1798L45.3616 60.5907L49.7987 65.0341L46.5537 58.1798ZM45.0685 57.0261L37.277 56.7146L43.704 59.4841L45.0685 57.0261ZM32.1996 58.141L26.7422 64.9301L30.3909 65.6915L32.1996 58.141ZM30.1709 67.0233L26.5046 66.2586L30.3301 75.1374L30.1709 67.0233Z" fill="#9013FE" fill-opacity="0.2"/>
</g>
<defs>
<clipPath id="clip0_22619_253812">
<rect width="390" height="151" fill="white"/>
</clipPath>
</defs>
</svg>
